<svg width="188" height="105" viewBox="0 0 188 105" fill="none" xmlns="http://www.w3.org/2000/svg">
<path d="M73.3145 50.793H54.8672V87.3022H73.3145V50.793Z" fill="#3D8EED"/>
<path d="M159.999 21.2773H141.551V87.3171H159.999V21.2773Z" fill="#3D8EED"/>
<path d="M102.277 61.6914H83.8297V87.3029H102.277V61.6914Z" fill="#3D8EED"/>
<path d="M187.084 30.9727H168.637V87.3007H187.084V30.9727Z" fill="#3D8EED"/>
<path d="M46.4614 61.6914H30.7753V87.3029H46.4614V61.6914Z" fill="#3D8EED"/>
<path d="M130.503 33.9766H112.056V87.2966H130.503V33.9766Z" fill="#3D8EED"/>
<path d="M14.711 104.577C14.0647 104.577 13.5654 104.285 13.5654 103.907V0.670367C13.5654 0.29221 14.0647 0 14.711 0C15.3572 0 15.8566 0.29221 15.8566 0.670367V103.907C15.8566 104.285 15.3572 104.577 14.711 104.577Z" fill="#3D8EED"/>
<path d="M177.888 97.3017H1.46397C0.817729 97.3017 0.318359 97.0095 0.318359 96.6313C0.318359 96.2531 0.817729 95.9609 1.46397 95.9609H177.888C178.534 95.9609 179.034 96.2531 179.034 96.6313C179.034 97.0095 178.505 97.3017 177.888 97.3017Z" fill="#3D8EED"/>
<path d="M35.0095 44.8084C34.6864 44.8084 34.3926 44.7397 34.1576 44.585C33.7464 44.31 33.7758 43.8802 34.2457 43.6396L63.2973 28.5305C63.7085 28.3071 64.3547 28.3071 64.766 28.5133L91.3794 41.1472L149.864 2.47215C150.07 2.33463 150.364 2.24869 150.687 2.24869C150.922 2.2315 151.304 2.30026 151.509 2.43777L180.972 18.6813C181.442 18.9391 181.442 19.3517 181.031 19.6267C180.59 19.9017 179.885 19.9017 179.415 19.6611L150.804 3.88164L92.4075 42.5051C91.9963 42.7801 91.2913 42.8145 90.8213 42.5739L64.0904 29.9056L35.7438 44.6365C35.5676 44.7569 35.3032 44.8084 35.0095 44.8084Z" fill="#3D8EED"/>
</svg>
