<svg width="15" height="13" viewBox="0 0 15 13" fill="none" xmlns="http://www.w3.org/2000/svg">
<path d="M1.49219 5.75391C1.07797 5.75391 0.742187 6.08969 0.742188 6.50391C0.742188 6.91812 1.07797 7.25391 1.49219 7.25391L1.49219 5.75391ZM14.5733 7.03424C14.8662 6.74134 14.8662 6.26647 14.5733 5.97358L9.80033 1.2006C9.50744 0.907711 9.03256 0.907711 8.73967 1.2006C8.44677 1.4935 8.44678 1.96837 8.73967 2.26127L12.9823 6.50391L8.73967 10.7465C8.44678 11.0394 8.44678 11.5143 8.73967 11.8072C9.03256 12.1001 9.50744 12.1001 9.80033 11.8072L14.5733 7.03424ZM1.49219 7.25391L14.043 7.25391L14.043 5.75391L1.49219 5.75391L1.49219 7.25391Z" fill="black"/>
</svg>
