<svg width="126" height="45" viewBox="0 0 126 45" fill="none" xmlns="http://www.w3.org/2000/svg">
<g clip-path="url(#clip0_1_197)">
<path fill-rule="evenodd" clip-rule="evenodd" d="M115.66 28.0782C114.355 28.1873 113.016 27.7063 112.072 26.6578L108.969 23.2123C107.908 22.034 107.092 20.6771 106.548 19.2197C106.488 19.2431 106.427 19.2682 106.368 19.2948C106.765 20.5924 107.376 21.8278 108.189 22.9464L110.914 26.6973C111.926 28.0903 113.632 28.6812 115.213 28.3405C115.281 28.3061 115.348 28.2697 115.415 28.2312C115.499 28.1826 115.581 28.1316 115.66 28.0782ZM115.867 27.9303C114.532 28.1117 113.134 27.6511 112.164 26.5744L109.062 23.129C108.012 21.9625 107.204 20.6194 106.665 19.1768C106.717 19.1589 106.768 19.1421 106.82 19.1265C107.525 20.7039 108.557 22.1332 109.866 23.3117L113.311 26.4141C114.17 27.1872 115.253 27.5541 116.323 27.5271C116.183 27.6709 116.03 27.8058 115.867 27.9303ZM115.916 28.0492C115.843 28.1041 115.768 28.157 115.691 28.2077C115.858 28.1503 116.023 28.0818 116.184 28.0021C116.095 28.0206 116.006 28.0363 115.916 28.0492ZM116.612 27.7592C116.449 27.8125 116.284 27.8556 116.118 27.8885C116.255 27.7724 116.383 27.6489 116.503 27.5189C116.679 27.5072 116.855 27.4847 117.029 27.4516C116.955 27.5131 116.879 27.5724 116.801 27.6296C116.738 27.6747 116.675 27.7179 116.612 27.7592ZM116.666 27.8725C116.223 28.1573 115.745 28.3515 115.255 28.4589C113.217 29.4853 110.706 28.7529 109.55 26.751L107.232 22.7358C106.646 21.7212 106.212 20.639 105.932 19.5224L102.666 21.408C100.591 22.6061 97.9376 21.8951 96.7395 19.8199C96.4305 19.2847 96.2485 18.7111 96.1841 18.1338C95.9978 17.6414 95.9073 17.1338 95.904 16.6327C95.7702 16.1233 95.7332 15.6089 95.7824 15.1101C95.7026 14.5901 95.7194 14.0752 95.8203 13.5847C95.7951 13.0585 95.8657 12.5474 96.0176 12.0695C96.0476 11.5435 96.1714 11.0426 96.3725 10.5832C96.4574 10.0635 96.6328 9.57849 96.8807 9.14283C97.0194 8.63497 97.2445 8.17109 97.5364 7.7638C97.7274 7.27333 97.9996 6.83558 98.3324 6.46108C98.5737 5.99299 98.8903 5.5859 99.2606 5.24809C99.5495 4.80787 99.9069 4.43616 100.31 4.13895C100.644 3.73131 101.038 3.39896 101.47 3.14555C101.845 2.77502 102.271 2.48575 102.728 2.27894C103.139 1.94956 103.594 1.70651 104.069 1.54856C104.512 1.26392 104.99 1.06974 105.479 0.962362C107.518 -0.0642624 110.029 0.668076 111.185 2.67008L113.117 6.01784C113.841 7.27047 114.334 8.6261 114.588 10.0223L118.07 8.01239C120.145 6.81429 122.798 7.52529 123.997 9.60046C124.305 10.1353 124.487 10.7086 124.552 11.2855C124.738 11.7781 124.829 12.2858 124.832 12.7871C124.966 13.2963 125.003 13.8106 124.954 14.3094C125.034 14.8304 125.017 15.3463 124.916 15.8376C124.941 16.3634 124.87 16.874 124.718 17.3514C124.688 17.8768 124.565 18.3772 124.364 18.8362C124.279 19.3559 124.104 19.8409 123.856 20.2765C123.717 20.7846 123.492 21.2487 123.2 21.6562C123.009 22.1471 122.737 22.5852 122.403 22.96C122.162 23.428 121.845 23.835 121.475 24.1727C121.186 24.613 120.829 24.9847 120.425 25.282C120.092 25.6896 119.697 26.0219 119.265 26.2753C118.891 26.6459 118.464 26.9352 118.007 27.142C117.596 27.4715 117.142 27.7146 116.666 27.8725ZM117.542 27.3212C117.39 27.4173 117.233 27.5027 117.072 27.5773C117.144 27.5187 117.213 27.4582 117.28 27.396C117.368 27.3738 117.455 27.3489 117.542 27.3212ZM118.381 26.806C118.532 26.715 118.679 26.6137 118.821 26.5022C118.738 26.5388 118.654 26.5727 118.569 26.6039C118.508 26.6728 118.446 26.7402 118.381 26.806ZM118.324 26.6855C118.258 26.7543 118.188 26.8213 118.116 26.8863C118.059 26.9377 118.001 26.9872 117.942 27.0349C117.786 27.1049 117.626 27.165 117.464 27.2152C117.588 27.0854 117.703 26.9492 117.808 26.8074C117.982 26.7773 118.155 26.7366 118.324 26.6855ZM118.732 26.4049C118.888 26.3381 119.041 26.2616 119.189 26.1757C119.242 26.122 119.295 26.0667 119.346 26.0096C119.411 25.9374 119.473 25.8635 119.532 25.7882C119.369 25.8568 119.202 25.9153 119.032 25.9635C118.942 26.1154 118.842 26.2629 118.732 26.4049ZM118.858 26.0088C118.75 26.1786 118.629 26.3421 118.496 26.4979C118.305 26.5663 118.11 26.6208 117.912 26.6611C118.032 26.4848 118.138 26.301 118.229 26.1112C118.441 26.0925 118.651 26.0581 118.858 26.0088ZM119.12 25.8071C119.312 25.7463 119.501 25.6717 119.683 25.5837C119.8 25.4147 119.903 25.2395 119.993 25.0593C119.792 25.13 119.587 25.1861 119.378 25.2269C119.307 25.4252 119.221 25.6192 119.12 25.8071ZM119.236 25.2523C119.157 25.4597 119.062 25.662 118.95 25.8569C118.734 25.9153 118.513 25.9566 118.29 25.9802C118.387 25.7622 118.465 25.5371 118.524 25.3075C118.764 25.3088 119.002 25.2901 119.236 25.2523ZM119.284 25.1177C119.363 24.8858 119.422 24.6482 119.459 24.4077C119.195 24.4261 118.928 24.4204 118.659 24.389C118.649 24.6564 118.613 24.9223 118.554 25.183C118.8 25.1826 119.045 25.1604 119.284 25.1177ZM119.425 25.0903C119.498 24.8633 119.552 24.6314 119.587 24.3969C119.825 24.3731 120.06 24.3296 120.289 24.2675C120.233 24.482 120.159 24.6931 120.068 24.8987C119.859 24.9793 119.644 25.0435 119.425 25.0903ZM120.161 24.9961C120.087 25.1566 120.003 25.3137 119.909 25.4665C120.057 25.3837 120.201 25.2918 120.339 25.1909C120.387 25.1319 120.433 25.0713 120.478 25.0092C120.535 24.9305 120.589 24.8506 120.64 24.7695C120.485 24.8547 120.325 24.9304 120.161 24.9961ZM120.769 24.5503C120.597 24.6568 120.417 24.7507 120.232 24.8313C120.313 24.6339 120.378 24.4321 120.428 24.2274C120.632 24.165 120.83 24.0878 121.022 23.9966C120.952 24.1851 120.867 24.3701 120.769 24.5503ZM120.862 24.6389C120.818 24.7188 120.771 24.7977 120.72 24.8756C120.85 24.7551 120.973 24.6254 121.088 24.4869C121.014 24.54 120.939 24.5907 120.862 24.6389ZM121.38 24.0911C121.253 24.2059 121.12 24.3124 120.981 24.4102C121.059 24.2485 121.126 24.0834 121.182 23.9161C121.339 23.8337 121.49 23.7417 121.636 23.6407C121.593 23.7266 121.548 23.8117 121.499 23.8959C121.461 23.9624 121.421 24.0275 121.38 24.0911ZM121.726 23.7378C121.843 23.6044 121.951 23.4626 122.051 23.3129C121.983 23.3734 121.914 23.4316 121.843 23.4876C121.807 23.5717 121.768 23.6551 121.726 23.7378ZM121.937 23.2478C121.997 23.0787 122.047 22.9076 122.085 22.7352C122.232 22.6368 122.373 22.5295 122.507 22.4138C122.475 22.5037 122.438 22.5931 122.399 22.6819C122.367 22.7521 122.335 22.8211 122.3 22.8888C122.186 23.0162 122.064 23.136 121.937 23.2478ZM121.741 23.4093C121.82 23.2197 121.884 23.0268 121.934 22.8321C121.753 22.9428 121.564 23.0403 121.368 23.1237C121.339 23.3325 121.296 23.5401 121.236 23.7448C121.412 23.6453 121.58 23.5332 121.741 23.4093ZM121.08 23.829C121.149 23.615 121.2 23.3973 121.234 23.178C121.013 23.2637 120.784 23.3315 120.549 23.3801C120.539 23.617 120.509 23.8533 120.46 24.0866C120.673 24.0172 120.881 23.931 121.08 23.829ZM120.324 24.1286C120.378 23.8898 120.411 23.6473 120.423 23.4042C120.163 23.4502 119.896 23.4725 119.625 23.4693C119.643 23.7363 119.636 24.0044 119.604 24.2699C119.849 24.2437 120.089 24.1962 120.324 24.1286ZM119.477 24.2815C119.511 24.0112 119.519 23.7381 119.5 23.4661C119.258 23.4562 119.014 23.426 118.769 23.3739L118.571 23.3319C118.636 23.6401 118.666 23.9526 118.662 24.264C118.936 24.2967 119.209 24.302 119.477 24.2815ZM118.538 24.2472C118.54 23.9318 118.507 23.6151 118.438 23.3035L117.379 23.0783C117.491 23.3822 117.568 23.6933 117.609 24.006L117.856 24.0862C118.082 24.1597 118.31 24.213 118.538 24.2472ZM117.478 23.9632C117.432 23.654 117.351 23.3469 117.233 23.0475L114.234 22.41C111.826 21.898 109.641 20.6906 107.937 18.9637C107.924 18.9636 107.911 18.9636 107.898 18.9637C109.363 20.6639 111.277 21.9484 113.447 22.6535L117.478 23.9632ZM107.738 18.9681C109.226 20.7236 111.184 22.0492 113.408 22.7719L117.495 24.1C117.532 24.4172 117.532 24.7356 117.496 25.049C117.273 24.9913 117.052 24.9144 116.835 24.8176L112.599 22.9319C110.625 22.0529 108.934 20.6811 107.674 18.9718C107.695 18.9704 107.717 18.9692 107.738 18.9681ZM107.794 18.8412C107.802 18.8409 107.81 18.8407 107.818 18.8405C107.777 18.7978 107.736 18.7549 107.696 18.7116C107.692 18.7111 107.689 18.7105 107.685 18.71C107.721 18.754 107.757 18.7977 107.794 18.8412ZM107.506 18.6862C107.55 18.741 107.594 18.7954 107.639 18.8494C107.622 18.8506 107.605 18.8519 107.588 18.8534C107.547 18.7966 107.507 18.7396 107.467 18.6821C107.48 18.6834 107.493 18.6848 107.506 18.6862ZM108.118 18.9686C109.791 20.629 111.919 21.7904 114.26 22.2881L117.176 22.9079C117.112 22.7611 117.039 22.6165 116.957 22.4746L116.769 22.1478L115.018 21.9637C112.451 21.694 110.05 20.639 108.128 18.9691C108.125 18.969 108.122 18.9688 108.118 18.9686ZM108.502 19.1206C110.353 20.6317 112.618 21.5863 115.031 21.8399L116.692 22.0144L116.359 21.438H115.75C113.135 21.438 110.604 20.6181 108.502 19.1206ZM116.503 21.438L116.845 22.0305L117.995 22.1514C117.917 22.0121 117.829 21.8758 117.733 21.7433L117.511 21.438H116.503ZM117.421 21.3135H116.431L116.171 20.8626C116.255 20.8554 116.34 20.8474 116.424 20.8385L117.029 20.7749L117.421 21.3135ZM117.665 21.438L117.834 21.6701C117.95 21.8309 118.055 21.997 118.146 22.1673L119.246 22.2829C119.137 21.9901 118.994 21.7065 118.817 21.438H117.665ZM118.732 21.3135H117.575L117.172 20.7599L118.175 20.6545L118.428 20.9348C118.537 21.0566 118.639 21.1831 118.732 21.3135ZM118.965 21.438C119.139 21.7119 119.278 22.0002 119.384 22.2974L119.642 22.3245C119.878 22.3494 120.113 22.3541 120.342 22.3402C120.279 22.0313 120.181 21.7284 120.049 21.438H118.965ZM119.989 21.3135H118.883C118.774 21.1536 118.653 20.9992 118.52 20.8515L118.328 20.6384L119.474 20.518C119.678 20.7665 119.85 21.0336 119.989 21.3135ZM120.185 21.438C120.312 21.7261 120.406 22.0256 120.468 22.3307C120.742 22.3058 121.01 22.2543 121.268 22.1784C121.245 21.907 121.196 21.6382 121.122 21.3761C120.883 21.4168 120.637 21.438 120.387 21.438H120.185ZM121.085 21.2558C120.858 21.2937 120.625 21.3135 120.387 21.3135H120.128C119.992 21.029 119.823 20.7567 119.622 20.5025L120.699 20.3892C120.861 20.6642 120.99 20.9552 121.085 21.2558ZM121.245 21.3532C121.317 21.6108 121.366 21.8744 121.39 22.1406C121.624 22.0642 121.849 21.9676 122.064 21.8529C122.068 21.6079 122.05 21.3639 122.011 21.1236C121.766 21.2227 121.51 21.3001 121.245 21.3532ZM121.989 20.9981C121.74 21.1006 121.479 21.1799 121.209 21.2333C121.116 20.9362 120.991 20.6482 120.835 20.375L121.035 20.3539C121.284 20.3277 121.526 20.2809 121.76 20.2155C121.861 20.4684 121.938 20.7306 121.989 20.9981ZM122.129 21.0739C122.169 21.3077 122.189 21.545 122.189 21.7834C122.383 21.6711 122.568 21.5436 122.742 21.4024C122.765 21.1787 122.77 20.9551 122.757 20.7336C122.559 20.8635 122.349 20.9775 122.129 21.0739ZM122.747 20.591C122.545 20.7277 122.331 20.8473 122.106 20.9478C122.054 20.6856 121.978 20.4284 121.879 20.1799C122.138 20.0993 122.385 19.9956 122.618 19.8713C122.682 20.1063 122.725 20.3471 122.747 20.591ZM122.877 20.6526C122.893 20.8628 122.893 21.0749 122.877 21.2876C123.028 21.1536 123.17 21.0088 123.301 20.8541C123.339 20.6523 123.362 20.4503 123.37 20.2495C123.216 20.3955 123.051 20.5303 122.877 20.6526ZM123.374 20.0721C123.216 20.2307 123.045 20.3768 122.864 20.5088C122.839 20.2718 122.794 20.0379 122.73 19.8095C122.939 19.6907 123.135 19.5554 123.319 19.4055C123.355 19.6244 123.373 19.8472 123.374 20.0721ZM123.498 20.1233C123.496 20.2998 123.483 20.4774 123.459 20.6553C123.561 20.5194 123.655 20.3769 123.74 20.2285C123.76 20.1553 123.778 20.0812 123.793 20.0062C123.814 19.911 123.831 19.8159 123.844 19.721C123.737 19.8621 123.621 19.9964 123.498 20.1233ZM123.872 19.4685C123.758 19.6359 123.633 19.7947 123.496 19.9437C123.49 19.7307 123.467 19.5197 123.43 19.3124C123.59 19.1726 123.74 19.0213 123.878 18.8601C123.891 19.0606 123.889 19.2638 123.872 19.4685ZM123.994 19.5114C123.986 19.6024 123.975 19.6937 123.96 19.7851C124.03 19.6224 124.089 19.4541 124.138 19.2809C124.092 19.3593 124.044 19.4362 123.994 19.5114ZM124.243 18.8006C124.174 18.957 124.096 19.1084 124.009 19.2542C124.014 19.0748 124.009 18.8969 123.992 18.7212C124.101 18.5823 124.202 18.4367 124.294 18.2853C124.29 18.381 124.284 18.4772 124.273 18.5739C124.265 18.6502 124.255 18.7257 124.243 18.8006ZM124.416 18.3365C124.468 18.1677 124.51 17.9943 124.54 17.8172C124.503 17.8998 124.463 17.9812 124.421 18.0611C124.422 18.1524 124.421 18.2442 124.416 18.3365ZM124.409 17.8037C124.48 17.6498 124.542 17.4912 124.595 17.3285C124.599 17.2526 124.601 17.1762 124.601 17.0993C124.601 17.0023 124.598 16.9061 124.591 16.8107C124.516 16.9708 124.431 17.126 124.337 17.2755C124.371 17.4485 124.396 17.6248 124.409 17.8037ZM124.297 17.1003C124.4 16.9264 124.49 16.7451 124.566 16.5578C124.54 16.354 124.5 16.1547 124.445 15.9611C124.344 16.1474 124.229 16.3263 124.101 16.4964C124.181 16.6914 124.247 16.8932 124.297 17.1003ZM124.013 16.6104C124.093 16.8171 124.157 17.0314 124.204 17.2513C124.083 17.4391 123.947 17.6173 123.797 17.784C123.723 17.5574 123.63 17.338 123.521 17.1277C123.699 16.9683 123.864 16.7951 124.013 16.6104ZM124.044 16.3636C124.176 16.1822 124.293 15.9907 124.394 15.7912C124.324 15.5774 124.238 15.3711 124.136 15.1739C124.008 15.3732 123.862 15.5626 123.701 15.7398C123.832 15.9374 123.947 16.146 124.044 16.3636ZM123.614 15.8333C123.746 16.0371 123.862 16.2528 123.958 16.4779C123.809 16.6701 123.642 16.85 123.46 17.0149C123.329 16.7816 123.178 16.5605 123.007 16.3547C123.227 16.1984 123.43 16.0235 123.614 15.8333ZM123.629 15.634C123.793 15.4509 123.94 15.2546 124.069 15.0478C123.949 14.8339 123.812 14.6315 123.658 14.4427C123.495 14.6511 123.312 14.8462 123.109 15.0247C123.301 15.2115 123.475 15.4155 123.629 15.634ZM123.014 15.106C123.21 15.2958 123.387 15.504 123.542 15.7276C123.357 15.9224 123.15 16.1009 122.925 16.2597C122.72 16.0261 122.488 15.8139 122.234 15.6278L122.409 15.5272C122.625 15.402 122.828 15.2608 123.014 15.106ZM123.018 14.9387C123.226 14.7573 123.412 14.5582 123.576 14.345C122.804 13.4509 121.661 12.8852 120.387 12.8852H115.75C115.421 12.8852 115.096 12.8439 114.782 12.7643C114.778 12.8507 114.774 12.9372 114.769 13.0236C115.132 13.1857 115.522 13.2915 115.925 13.3339L120.536 13.8185C121.5 13.9198 122.356 14.3293 123.018 14.9387ZM114.76 13.1558C115.123 13.3128 115.511 13.4156 115.912 13.4577L120.523 13.9424C121.453 14.0402 122.281 14.4338 122.923 15.0199C122.745 15.1665 122.552 15.3003 122.346 15.4194L122.122 15.5486C121.668 15.2372 121.146 15.0078 120.573 14.8861L116.038 13.9222C115.572 13.823 115.133 13.6385 114.742 13.3823C114.748 13.3068 114.754 13.2313 114.76 13.1558ZM114.647 12.9668C114.652 12.8882 114.655 12.8095 114.658 12.7309C114.63 12.7227 114.601 12.7142 114.573 12.7053C114.576 12.781 114.578 12.8567 114.579 12.9325C114.601 12.9442 114.624 12.9556 114.647 12.9668ZM114.58 13.0727C114.6 13.0823 114.619 13.0917 114.639 13.101C114.634 13.168 114.629 13.2349 114.623 13.3019C114.609 13.2914 114.594 13.2808 114.579 13.27C114.58 13.2042 114.58 13.1384 114.58 13.0727ZM114.453 12.8649C114.451 12.7977 114.45 12.7306 114.447 12.6635C114.427 12.6563 114.406 12.649 114.386 12.6415C114.393 12.7069 114.4 12.7724 114.406 12.8379C114.421 12.847 114.437 12.856 114.453 12.8649ZM114.419 12.9885C114.431 12.9951 114.443 13.0017 114.455 13.0082C114.456 13.064 114.456 13.1198 114.455 13.1756C114.447 13.1692 114.439 13.1627 114.431 13.1562C114.427 13.1003 114.423 13.0443 114.419 12.9885ZM114.273 12.757C114.267 12.7014 114.261 12.6459 114.255 12.5905C114.242 12.5853 114.23 12.5801 114.217 12.5747C114.227 12.6299 114.237 12.6851 114.247 12.7404C114.255 12.7459 114.264 12.7515 114.273 12.757ZM114.274 12.9047C114.279 12.9073 114.283 12.91 114.287 12.9126C114.291 12.9562 114.295 12.9999 114.298 13.0435L114.295 13.0409C114.289 12.9955 114.282 12.95 114.274 12.9047ZM114.103 12.6422C114.095 12.5991 114.087 12.5561 114.078 12.5131C114.074 12.5109 114.069 12.5086 114.064 12.5064C114.076 12.5508 114.088 12.5953 114.099 12.6398L114.103 12.6422ZM114.02 12.3459C114.029 12.3506 114.038 12.3552 114.047 12.3598C114.036 12.3051 114.024 12.2504 114.012 12.1958C113.999 12.192 113.986 12.1881 113.973 12.1841C113.989 12.2379 114.004 12.2918 114.02 12.3459ZM113.828 12.1372C113.841 12.1792 113.854 12.2212 113.866 12.2634L113.863 12.2614C113.847 12.2182 113.83 12.1751 113.814 12.1321C113.819 12.1338 113.823 12.1355 113.828 12.1372ZM113.929 12.0395C113.946 12.0452 113.963 12.0507 113.98 12.0561C113.965 11.9906 113.949 11.9252 113.933 11.86C113.911 11.8572 113.89 11.8543 113.868 11.8512C113.889 11.9138 113.909 11.9766 113.929 12.0395ZM113.729 11.8285C113.747 11.8816 113.765 11.9347 113.782 11.988C113.772 11.9844 113.762 11.9808 113.753 11.9771C113.732 11.9249 113.711 11.8728 113.689 11.8209C113.702 11.8235 113.716 11.8261 113.729 11.8285ZM113.824 11.7183C113.849 11.7224 113.874 11.7262 113.899 11.7298C113.879 11.6536 113.858 11.5776 113.837 11.5019C113.807 11.5029 113.778 11.5035 113.748 11.5038C113.774 11.5751 113.799 11.6466 113.824 11.7183ZM113.615 11.5031C113.638 11.5661 113.661 11.6294 113.683 11.6929C113.665 11.6893 113.648 11.6856 113.63 11.6818C113.604 11.6213 113.577 11.5611 113.55 11.501C113.572 11.5019 113.594 11.5026 113.615 11.5031ZM113.702 11.3795C113.735 11.3795 113.768 11.3791 113.801 11.3783C113.775 11.2907 113.748 11.2033 113.721 11.1163C113.683 11.1238 113.646 11.1308 113.609 11.1372C113.641 11.2176 113.672 11.2984 113.702 11.3795ZM113.482 11.1569C113.512 11.23 113.54 11.3034 113.568 11.3771C113.543 11.3762 113.517 11.375 113.492 11.3736C113.46 11.3048 113.428 11.2363 113.395 11.1681C113.424 11.1647 113.453 11.161 113.482 11.1569ZM113.561 11.019C113.601 11.0123 113.642 11.005 113.682 10.9971C113.649 10.8966 113.614 10.7966 113.578 10.6971C113.534 10.7143 113.49 10.7307 113.445 10.7463C113.485 10.8367 113.523 10.9276 113.561 11.019ZM113.327 10.7856C113.363 10.8692 113.399 10.9533 113.434 11.0378C113.401 11.042 113.369 11.0458 113.336 11.0493C113.297 10.9718 113.258 10.8947 113.218 10.8181C113.254 10.8078 113.29 10.797 113.327 10.7856ZM113.395 10.632C113.442 10.6157 113.489 10.5983 113.536 10.5801C112.847 8.72099 111.714 7.03708 110.214 5.68596L107.341 3.09932C106.473 2.3183 105.371 1.9641 104.291 2.0232C104.14 2.19049 104.005 2.36842 103.885 2.55491C104.698 2.59509 105.509 2.86429 106.217 3.37854L109.344 5.65073C111.121 6.94125 112.509 8.66423 113.395 10.632ZM103.809 2.67648C104.622 2.70331 105.436 2.96525 106.144 3.47931L109.271 5.75149C111.026 7.02651 112.399 8.7279 113.276 10.6711C113.236 10.6832 113.197 10.6947 113.158 10.7055C112.067 8.67954 110.428 6.97651 108.403 5.80731L105.055 3.87448C104.558 3.58719 104.027 3.40968 103.491 3.33441C103.577 3.10706 103.684 2.88681 103.809 2.67648ZM103.74 2.55018C103.851 2.37111 103.976 2.19935 104.114 2.0366C103.913 2.05606 103.713 2.08988 103.516 2.13798C103.367 2.27887 103.23 2.42886 103.105 2.58644C103.315 2.55893 103.528 2.54675 103.74 2.55018ZM102.998 2.72792C103.219 2.69241 103.442 2.67438 103.666 2.67419C103.548 2.88087 103.447 3.09646 103.364 3.31849C103.125 3.29224 102.887 3.286 102.65 3.29913C102.75 3.10111 102.866 2.91 102.998 2.72792ZM102.927 2.61341C103.033 2.47171 103.147 2.33551 103.271 2.20577C103.109 2.25592 102.95 2.31602 102.794 2.38602C102.735 2.43375 102.676 2.48333 102.619 2.53476C102.547 2.59974 102.478 2.66665 102.411 2.73534C102.581 2.68422 102.753 2.64352 102.927 2.61341ZM102.24 2.92302C102.43 2.85462 102.625 2.80011 102.823 2.75975C102.703 2.93599 102.597 3.11983 102.506 3.30952C102.294 3.32835 102.084 3.36268 101.877 3.41203C101.985 3.24227 102.106 3.07877 102.24 2.92302ZM102.167 2.81699C102.227 2.74815 102.289 2.68081 102.354 2.61511C102.203 2.70602 102.056 2.80721 101.915 2.91863C101.998 2.88208 102.082 2.84819 102.167 2.81699ZM101.547 3.24519C101.695 3.15929 101.847 3.08286 102.003 3.01605C101.893 3.15805 101.793 3.3055 101.703 3.45742C101.533 3.50558 101.366 3.56406 101.203 3.63261C101.262 3.55728 101.324 3.48344 101.389 3.41123C101.441 3.35415 101.493 3.2988 101.547 3.24519ZM101.134 3.51886C100.993 3.62516 100.857 3.7412 100.728 3.86684C100.807 3.82178 100.887 3.77927 100.969 3.73934C101.021 3.66457 101.076 3.59103 101.134 3.51886ZM100.827 3.9544C100.678 4.03717 100.535 4.12913 100.397 4.23005C100.349 4.28897 100.302 4.3495 100.257 4.41162C100.2 4.49021 100.146 4.57012 100.095 4.65119C100.251 4.56593 100.411 4.49027 100.575 4.42459C100.648 4.26413 100.732 4.10707 100.827 3.9544ZM100.504 4.58937C100.318 4.66998 100.139 4.76386 99.9667 4.87041C99.8681 5.05059 99.784 5.23564 99.7141 5.42405C99.9057 5.33287 100.104 5.25561 100.307 5.19313C100.358 4.98853 100.423 4.78669 100.504 4.58937ZM100.446 5.15301C100.503 4.93855 100.576 4.72748 100.668 4.52195C100.876 4.44131 101.091 4.37718 101.31 4.33038C101.237 4.55722 101.183 4.78911 101.148 5.02352C100.91 5.04737 100.675 5.09092 100.446 5.15301ZM100.275 5.33394C100.062 5.40342 99.8549 5.4897 99.6559 5.59173C99.5866 5.80566 99.5353 6.02327 99.5015 6.24245C99.7227 6.15676 99.9517 6.0889 100.186 6.04026C100.197 5.80348 100.226 5.56719 100.275 5.33394ZM100.312 6.01612C100.324 5.77309 100.358 5.53072 100.412 5.29192C100.646 5.22433 100.887 5.17676 101.131 5.15054C101.099 5.41592 101.092 5.68391 101.11 5.95084C100.839 5.94779 100.573 5.97016 100.312 6.01612ZM100.183 6.16837C99.9421 6.22001 99.7077 6.29247 99.4821 6.38417C99.453 6.62736 99.4453 6.8719 99.4585 7.11489C99.7127 7.04196 99.9757 6.99183 100.245 6.96664C100.2 6.70295 100.179 6.43564 100.183 6.16837ZM100.37 6.95679C100.323 6.68826 100.302 6.41579 100.308 6.14351C100.572 6.09504 100.844 6.0717 101.119 6.07555C101.149 6.38545 101.211 6.69315 101.307 6.99291L101.107 6.97193C100.858 6.94573 100.612 6.94119 100.37 6.95679ZM100.268 7.08963C99.9934 7.11457 99.7256 7.16618 99.4673 7.24206C99.4903 7.51344 99.5394 7.78225 99.6139 8.04443C99.8529 8.00364 100.099 7.9824 100.349 7.9824L100.55 7.98239C100.423 7.69431 100.329 7.39481 100.268 7.08963ZM100.687 7.98239C100.554 7.69196 100.456 7.3891 100.393 7.08014C100.623 7.06615 100.857 7.0709 101.094 7.0958L101.351 7.12276C101.457 7.42 101.596 7.70846 101.769 7.98239H100.687ZM100.607 8.10695H100.349C100.111 8.10695 99.8774 8.12671 99.6501 8.16466C99.7453 8.46528 99.8745 8.75621 100.037 9.03118L101.113 8.91799C100.912 8.66372 100.744 8.39146 100.607 8.10695ZM101.261 8.90249C101.057 8.65396 100.885 8.38681 100.746 8.10695H101.851C101.96 8.26702 102.082 8.42166 102.215 8.56964L102.406 8.78213L101.261 8.90249ZM101.208 9.03331L100.109 9.14885C100.276 9.41265 100.475 9.66037 100.704 9.88619L101.83 9.64673L101.618 9.45533C101.47 9.32213 101.333 9.18105 101.208 9.03331ZM101.981 9.61472L101.701 9.36277C101.579 9.25293 101.465 9.13758 101.359 9.01744L102.509 8.89655L102.967 9.40513C102.962 9.40628 102.956 9.40743 102.951 9.40858L101.981 9.61472ZM101.945 9.74975L100.813 9.99027C100.931 10.0987 101.057 10.2015 101.19 10.2979L101.494 10.5193L102.437 10.213C102.443 10.2112 102.448 10.2095 102.453 10.2077L101.945 9.74975ZM102.591 10.1641L102.095 9.71774L102.977 9.53041C103.006 9.52426 103.035 9.51822 103.064 9.51228L103.442 9.93232C103.156 9.99934 102.873 10.0766 102.591 10.1641ZM102.561 10.3042C102.532 10.3132 102.504 10.3223 102.476 10.3314L101.619 10.6098L102.159 11.0019C102.43 10.8854 102.704 10.7789 102.981 10.6824L102.561 10.3042ZM103.115 10.6363L102.699 10.2612C102.976 10.1768 103.256 10.1025 103.537 10.0381L103.871 10.4089C103.617 10.4765 103.365 10.5524 103.115 10.6363ZM103.086 10.7776C102.814 10.8711 102.543 10.9742 102.276 11.0872L102.729 11.4167C102.969 11.3071 103.212 11.2053 103.457 11.1115L103.086 10.7776ZM103.588 11.0621L103.222 10.7321C103.468 10.6512 103.715 10.5781 103.965 10.513L104.256 10.8365C104.032 10.9053 103.809 10.9805 103.588 11.0621ZM103.561 11.2052C103.32 11.2961 103.081 11.3947 102.845 11.5009L104.317 12.5701C104.972 13.0463 105.46 13.709 105.723 14.4637C105.725 14.4542 105.726 14.4446 105.728 14.4351C105.62 13.5164 105.182 12.6647 104.491 12.042L103.561 11.2052ZM105.68 14.7447C105.451 13.9147 104.947 13.1819 104.244 12.6709L102.715 11.5603C102.454 11.6817 102.196 11.8126 101.942 11.9529L104.127 13.2143C104.791 13.5981 105.324 14.1642 105.668 14.8376C105.672 14.8066 105.676 14.7756 105.68 14.7447ZM105.639 15.0667C105.313 14.3387 104.764 13.7262 104.064 13.3222L101.815 12.0237C101.789 12.0384 101.763 12.0533 101.738 12.0682L100.958 12.5183L104.005 13.8748C104.66 14.1666 105.218 14.629 105.624 15.2059C105.629 15.1594 105.634 15.1131 105.639 15.0667ZM105.606 15.4008C105.206 14.7847 104.635 14.2917 103.954 13.9885L100.825 12.5953L99.8229 13.1737C99.9687 13.2402 100.12 13.2992 100.276 13.3499L103.952 14.5444C104.582 14.7489 105.143 15.1064 105.591 15.5775C105.596 15.5186 105.6 15.4597 105.606 15.4008ZM105.58 15.7489C105.134 15.2503 104.561 14.8731 103.914 14.6629L100.237 13.4683C100.048 13.4068 99.8659 13.3335 99.6914 13.2496L98.7341 13.8023C99.1638 14.0877 99.6536 14.2984 100.189 14.4122L103.97 15.2159C104.558 15.3409 105.104 15.5972 105.569 15.959C105.572 15.889 105.576 15.819 105.58 15.7489ZM105.69 16.0568C105.692 16.0001 105.695 15.9433 105.697 15.8865C105.699 15.8892 105.702 15.8918 105.704 15.8944C105.705 15.9536 105.706 16.0128 105.708 16.072C105.702 16.0669 105.696 16.0619 105.69 16.0568ZM105.564 16.1138C105.098 15.7335 104.544 15.4652 103.944 15.3378L100.163 14.5341C99.5905 14.4124 99.0686 14.183 98.614 13.8716L98.3898 14.001C98.1837 14.1201 97.9914 14.2539 97.8135 14.4004C98.455 14.9865 99.2828 15.3801 100.213 15.4779L104.058 15.882C104.59 15.9379 105.1 16.1009 105.559 16.3556C105.56 16.275 105.561 16.1944 105.564 16.1138ZM105.683 16.4274C105.683 16.3575 105.684 16.2875 105.686 16.2176C105.695 16.2262 105.705 16.2349 105.715 16.2436C105.718 16.3138 105.722 16.3839 105.726 16.4539C105.712 16.445 105.697 16.4362 105.683 16.4274ZM105.558 16.4984C105.098 16.2323 104.583 16.0625 104.045 16.0059L100.2 15.6018C99.2366 15.5005 98.3799 15.091 97.7178 14.4816C97.5104 14.6631 97.3241 14.8623 97.1596 15.0755C97.9324 15.9695 99.0747 16.5353 100.349 16.5352H104.215C104.678 16.5352 105.134 16.6169 105.561 16.7723C105.559 16.6811 105.558 16.5898 105.558 16.4984ZM105.687 16.8205C105.685 16.7383 105.684 16.6561 105.683 16.5739C105.701 16.5852 105.719 16.5967 105.737 16.6084C105.743 16.6888 105.75 16.7692 105.757 16.8494C105.734 16.8396 105.711 16.8299 105.687 16.8205ZM105.565 16.9066C105.138 16.7449 104.681 16.6598 104.215 16.6598H100.349C99.0469 16.6598 97.8786 16.0861 97.0833 15.1776C96.9391 15.3769 96.8135 15.5876 96.7071 15.8067C97.5584 17.0144 99.0209 17.7379 100.595 17.5725L104.439 17.1684C104.823 17.1281 105.207 17.1446 105.579 17.2146C105.573 17.112 105.569 17.0093 105.565 16.9066ZM105.706 17.2404C105.7 17.146 105.695 17.0515 105.692 16.957C105.718 16.9682 105.745 16.9797 105.771 16.9915C105.781 17.0823 105.792 17.1729 105.803 17.2634C105.771 17.2553 105.738 17.2477 105.706 17.2404ZM105.587 17.343C105.217 17.2702 104.835 17.2521 104.452 17.2923L100.608 17.6963C99.0128 17.864 97.5289 17.1449 96.6468 15.9364C96.5558 16.1412 96.4814 16.3527 96.424 16.5688C97.313 18.1046 99.1179 18.9672 100.948 18.5783L104.729 17.7745C105.023 17.7121 105.32 17.6839 105.616 17.6889C105.605 17.5738 105.595 17.4584 105.587 17.343ZM105.742 17.6931C105.731 17.5856 105.722 17.4779 105.714 17.3701C105.75 17.3784 105.786 17.3872 105.821 17.3965C105.835 17.4983 105.851 17.5999 105.867 17.7013C105.825 17.6979 105.784 17.6951 105.742 17.6931ZM105.629 17.8138C105.338 17.8077 105.044 17.8348 104.755 17.8964L100.974 18.7001C99.1338 19.0912 97.3186 18.2533 96.382 16.7412C96.3384 16.9383 96.3088 17.1387 96.2938 17.3407C97.1867 19.2287 99.3647 20.2043 101.404 19.5418L105.08 18.3472C105.276 18.2836 105.476 18.2357 105.677 18.2036C105.659 18.0739 105.643 17.944 105.629 17.8138ZM105.8 18.1859C105.783 18.0637 105.768 17.9412 105.754 17.8185C105.799 17.8209 105.844 17.8241 105.889 17.8281C105.909 17.9422 105.93 18.056 105.953 18.1694C105.902 18.1739 105.851 18.1794 105.8 18.1859ZM105.694 18.3269C105.5 18.358 105.308 18.4042 105.119 18.4657L101.442 19.6603C99.4164 20.3185 97.2573 19.4061 96.2825 17.5946C96.2801 17.7643 96.2879 17.9345 96.3062 18.1046C96.3334 18.1756 96.3626 18.2463 96.3939 18.3166C97.3406 20.4428 99.8316 21.399 101.958 20.4524L105.489 18.8801C105.581 18.8392 105.674 18.802 105.768 18.7685C105.741 18.6217 105.716 18.4745 105.694 18.3269ZM105.887 18.7281C105.862 18.5889 105.838 18.4492 105.818 18.3092C105.871 18.3024 105.925 18.2967 105.979 18.2922C106.006 18.4202 106.036 18.5478 106.067 18.6749C106.007 18.6912 105.947 18.7089 105.887 18.7281ZM105.792 18.8923C105.707 18.9231 105.623 18.9569 105.54 18.9939L102.008 20.5662C99.8961 21.5067 97.4339 20.6229 96.3883 18.5928C96.48 18.992 96.6319 19.3845 96.8473 19.7577C98.0111 21.7733 100.588 22.4639 102.604 21.3001L105.901 19.3964C105.861 19.2291 105.825 19.061 105.792 18.8923ZM106.014 19.3321C105.976 19.1725 105.942 19.0123 105.911 18.8514C105.973 18.8312 106.035 18.8127 106.098 18.7957C106.135 18.9402 106.175 19.084 106.217 19.2272C106.149 19.2601 106.081 19.2951 106.014 19.3321ZM106.044 19.4578C106.321 20.5754 106.754 21.6586 107.34 22.6735L109.658 26.6887C110.7 28.4924 112.873 29.2351 114.763 28.5374C113.277 28.6872 111.754 28.0655 110.813 26.7705L108.088 23.0196C107.271 21.8945 106.655 20.6525 106.254 19.3479C106.183 19.3822 106.113 19.4189 106.044 19.4578ZM106.332 19.1745C106.389 19.1492 106.447 19.1253 106.505 19.1028C106.461 18.9797 106.418 18.8559 106.378 18.7314C106.324 18.7415 106.271 18.7528 106.219 18.7652C106.254 18.9023 106.292 19.0387 106.332 19.1745ZM106.188 18.6444C106.238 18.6326 106.289 18.6218 106.339 18.6119C106.304 18.5015 106.271 18.3906 106.239 18.2793C106.194 18.28 106.149 18.2815 106.105 18.2837C106.131 18.4044 106.158 18.5246 106.188 18.6444ZM106.079 18.1604C106.121 18.158 106.163 18.1564 106.205 18.1554C106.177 18.0562 106.151 17.9568 106.127 17.8569C106.09 17.8514 106.054 17.8463 106.018 17.8418C106.037 17.9483 106.057 18.0545 106.079 18.1604ZM105.996 17.7138C106.029 17.7176 106.062 17.7218 106.095 17.7264C106.074 17.6377 106.054 17.5487 106.035 17.4594C106.007 17.4504 105.98 17.4418 105.952 17.4334C105.965 17.527 105.98 17.6205 105.996 17.7138ZM105.933 17.2981C105.958 17.3051 105.982 17.3122 106.006 17.3196C105.99 17.2407 105.975 17.1616 105.961 17.0823C105.942 17.0725 105.923 17.0629 105.903 17.0535C105.913 17.1352 105.923 17.2167 105.933 17.2981ZM105.888 16.9079C105.903 16.9151 105.919 16.9224 105.934 16.9298C105.922 16.8606 105.911 16.7913 105.901 16.7219C105.89 16.7141 105.879 16.7065 105.869 16.6989C105.875 16.7686 105.881 16.8383 105.888 16.9079ZM105.857 16.5385C105.863 16.5429 105.87 16.5474 105.876 16.5518C105.868 16.4931 105.86 16.4343 105.853 16.3755C105.851 16.3731 105.848 16.3706 105.846 16.3682C105.849 16.425 105.853 16.4818 105.857 16.5385ZM106.044 16.8321C106.053 16.8882 106.063 16.9443 106.072 17.0003C106.079 17.004 106.086 17.0078 106.093 17.0116C106.079 16.9541 106.066 16.8965 106.052 16.8388C106.049 16.8365 106.047 16.8343 106.044 16.8321ZM106.136 17.1782C106.124 17.1715 106.113 17.165 106.101 17.1585C106.114 17.2271 106.128 17.2957 106.142 17.3641C106.158 17.3697 106.174 17.3753 106.19 17.3811C106.172 17.3136 106.153 17.246 106.136 17.1782ZM106.336 17.4368C106.32 17.3823 106.305 17.3276 106.29 17.2728C106.293 17.2747 106.296 17.2766 106.298 17.2785C106.318 17.3344 106.337 17.3902 106.357 17.4458C106.35 17.4427 106.343 17.4398 106.336 17.4368ZM106.233 17.53C106.213 17.5223 106.193 17.5147 106.173 17.5073C106.19 17.5875 106.209 17.6675 106.228 17.7473C106.253 17.7517 106.278 17.7563 106.303 17.7612C106.279 17.6844 106.255 17.6073 106.233 17.53ZM106.443 17.7911C106.422 17.7246 106.401 17.658 106.381 17.5911C106.393 17.5963 106.405 17.6016 106.417 17.607C106.442 17.6726 106.467 17.7379 106.492 17.803C106.476 17.7989 106.46 17.795 106.443 17.7911ZM106.346 17.8972C106.318 17.8911 106.289 17.8853 106.261 17.8799C106.284 17.9717 106.308 18.0632 106.334 18.1544C106.367 18.1547 106.401 18.1554 106.434 18.1566C106.404 18.0705 106.375 17.984 106.346 17.8972ZM106.569 18.1635C106.541 18.0861 106.514 18.0084 106.488 17.9304C106.509 17.9356 106.53 17.941 106.55 17.9466C106.581 18.0212 106.612 18.0955 106.644 18.1694C106.619 18.1672 106.594 18.1653 106.569 18.1635ZM106.479 18.2831C106.442 18.2814 106.406 18.2802 106.369 18.2795C106.399 18.3834 106.43 18.4868 106.463 18.5899C106.504 18.5832 106.546 18.5771 106.588 18.5717C106.55 18.476 106.514 18.3798 106.479 18.2831ZM106.716 18.5573C106.681 18.4693 106.648 18.3808 106.615 18.292C106.644 18.2944 106.673 18.2971 106.702 18.3002C106.739 18.3835 106.777 18.4665 106.816 18.549C106.783 18.5513 106.749 18.5541 106.716 18.5573ZM106.635 18.6913C106.591 18.6967 106.546 18.7029 106.502 18.7098C106.54 18.8271 106.58 18.9438 106.622 19.0598C106.671 19.0428 106.72 19.0267 106.769 19.0117C106.723 18.9055 106.678 18.7987 106.635 18.6913ZM106.89 18.9768C106.847 18.8778 106.805 18.7781 106.764 18.678C106.801 18.6748 106.837 18.6722 106.874 18.6701C106.919 18.7625 106.965 18.8544 107.012 18.9457C106.971 18.9555 106.931 18.9658 106.89 18.9768ZM106.941 19.0921C107.639 20.6473 108.658 22.0565 109.949 23.2192L113.395 26.3215C114.262 27.1024 115.365 27.4567 116.445 27.3976C116.595 27.2303 116.73 27.0524 116.85 26.8658C116.037 26.8256 115.226 26.5564 114.519 26.0422L110.768 23.3171C109.213 22.1874 107.955 20.7263 107.072 19.0597C107.028 19.0697 106.985 19.0805 106.941 19.0921ZM107.199 19.033C108.072 20.6698 109.311 22.105 110.841 23.2163L114.592 25.9415C115.299 26.4554 116.113 26.7174 116.926 26.7443C117.051 26.5339 117.158 26.3136 117.244 26.0862C116.709 26.0109 116.178 25.8334 115.681 25.5462L111.665 23.2281C109.872 22.1929 108.382 20.7393 107.307 19.0137C107.271 19.0196 107.235 19.026 107.199 19.033ZM107.138 18.918C107.171 18.9114 107.204 18.9051 107.237 18.8993C107.189 18.8213 107.143 18.7428 107.097 18.6638C107.068 18.6637 107.039 18.664 107.01 18.6647C107.052 18.7496 107.094 18.8341 107.138 18.918ZM106.95 18.5418C106.976 18.5409 107.001 18.5402 107.026 18.5398C106.987 18.4696 106.948 18.399 106.91 18.328C106.889 18.3246 106.867 18.3214 106.846 18.3183C106.88 18.3932 106.915 18.4677 106.95 18.5418ZM106.787 18.1846C106.803 18.1867 106.82 18.1889 106.837 18.1912C106.805 18.1291 106.773 18.0666 106.741 18.0039C106.729 17.9998 106.716 17.9958 106.704 17.9918C106.731 18.0563 106.759 18.1206 106.787 18.1846ZM106.643 17.8432C106.65 17.8453 106.658 17.8475 106.665 17.8498C106.64 17.7966 106.614 17.7433 106.589 17.6898C106.586 17.6882 106.583 17.6866 106.58 17.685C106.601 17.7379 106.621 17.7906 106.643 17.8432ZM106.912 18.0644C106.938 18.115 106.964 18.1653 106.991 18.2155C106.998 18.2169 107.006 18.2183 107.014 18.2197C106.983 18.1695 106.952 18.119 106.922 18.0683C106.918 18.067 106.915 18.0657 106.912 18.0644ZM107.106 18.3651C107.093 18.3623 107.08 18.3596 107.067 18.357C107.101 18.4183 107.135 18.4793 107.17 18.54C107.187 18.5403 107.204 18.5407 107.221 18.5413C107.182 18.4829 107.144 18.4242 107.106 18.3651ZM107.376 18.5494C107.344 18.5023 107.313 18.455 107.282 18.4075C107.285 18.4084 107.288 18.4094 107.292 18.4103C107.327 18.4575 107.363 18.5045 107.4 18.5512C107.392 18.5505 107.384 18.55 107.376 18.5494ZM107.307 18.6698C107.286 18.6686 107.264 18.6676 107.243 18.6667C107.285 18.7376 107.327 18.8081 107.37 18.8781C107.395 18.8745 107.42 18.8712 107.445 18.8682C107.398 18.8025 107.352 18.7364 107.307 18.6698ZM107.529 18.9841C107.5 18.9871 107.471 18.9904 107.442 18.9941C108.504 20.6823 109.969 22.1046 111.728 23.1202L115.743 25.4384C116.234 25.722 116.759 25.8955 117.288 25.9664C117.377 25.7091 117.442 25.4435 117.48 25.1736C117.246 25.1137 117.013 25.0332 116.784 24.9314L112.549 23.0456C110.531 22.1473 108.806 20.7393 107.529 18.9841ZM117.602 25.2028C117.564 25.4676 117.501 25.7284 117.415 25.9815C117.659 26.0067 117.905 26.0103 118.148 25.9928C118.25 25.7705 118.333 25.5402 118.396 25.305C118.132 25.2957 117.866 25.2621 117.602 25.2028ZM117.618 25.0787C117.887 25.1398 118.158 25.1736 118.427 25.1813C118.489 24.916 118.525 24.6452 118.535 24.3727C118.296 24.3376 118.056 24.282 117.818 24.2047L117.625 24.1422C117.657 24.4554 117.654 24.7695 117.618 25.0787ZM118.085 26.1216C117.848 26.1347 117.61 26.1284 117.372 26.1022C117.289 26.3242 117.187 26.5399 117.069 26.7466C117.293 26.7464 117.517 26.7284 117.737 26.6929C117.869 26.5108 117.985 26.3197 118.085 26.1216ZM117.63 26.8344C117.42 26.8619 117.207 26.874 116.995 26.8706C116.884 27.0497 116.759 27.2215 116.621 27.3843C116.822 27.3648 117.022 27.331 117.219 27.2829C117.368 27.142 117.506 26.992 117.63 26.8344ZM108.97 19.2899C110.97 20.6003 113.323 21.3135 115.75 21.3135H116.287L116.033 20.8734C113.562 21.0549 111.106 20.4969 108.97 19.2899ZM109.454 19.4098C111.449 20.4371 113.699 20.9087 115.964 20.7535L115.746 20.3758C113.597 20.6028 111.429 20.2677 109.454 19.4098ZM115.881 20.3608L116.102 20.7433C116.205 20.735 116.308 20.7255 116.411 20.7146L116.945 20.6586L116.646 20.2475C116.392 20.2933 116.136 20.331 115.881 20.3608ZM116.565 20.1354C116.315 20.1791 116.064 20.2151 115.813 20.2432L115.62 19.9093C115.85 19.8736 116.08 19.8314 116.308 19.7827L116.565 20.1354ZM116.782 20.2223L117.088 20.6435L118.072 20.5401L117.627 20.0453L117.032 20.1718C116.949 20.1895 116.865 20.2063 116.782 20.2223ZM117.531 19.9385L117.006 20.0499C116.904 20.0715 116.803 20.0918 116.701 20.1108L116.441 19.7537C116.692 19.6973 116.942 19.6331 117.191 19.5609L117.531 19.9385ZM117.767 20.0154L118.225 20.524L119.376 20.403C119.27 20.283 119.156 20.1678 119.034 20.058L118.754 19.8057L117.767 20.0154ZM118.64 19.7027L117.671 19.9085L117.323 19.5217C117.404 19.4971 117.485 19.4716 117.566 19.4453L118.145 19.2573L118.64 19.7027ZM118.905 19.7737L119.118 19.9655C119.266 20.0986 119.402 20.2395 119.527 20.3871L120.627 20.2716C120.459 20.0078 120.261 19.76 120.031 19.5342L118.905 19.7737ZM119.922 19.4301L118.79 19.6707L118.282 19.2128L119.241 18.9012L119.546 19.1228C119.679 19.2192 119.804 19.3219 119.922 19.4301ZM120.177 19.5034C120.403 19.7352 120.599 19.9884 120.765 20.2571L121.022 20.23C121.259 20.2051 121.489 20.1611 121.711 20.0996C121.585 19.8106 121.426 19.5347 121.236 19.2782L120.177 19.5034ZM121.152 19.1687L120.071 19.3986C119.931 19.2649 119.78 19.139 119.619 19.022L119.387 18.8536L120.483 18.4977C120.734 18.6983 120.958 18.9239 121.152 19.1687ZM121.369 19.2498C121.553 19.5052 121.708 19.7786 121.831 20.0644C122.095 19.9829 122.346 19.8768 122.583 19.7488C122.504 19.4881 122.4 19.2354 122.273 18.9945C122.048 19.084 121.812 19.1558 121.567 19.2078L121.369 19.2498ZM122.212 18.8844C121.998 18.9687 121.774 19.0365 121.541 19.086L121.288 19.1399C121.095 18.8899 120.873 18.6587 120.624 18.4519L121.654 18.1171C121.87 18.3524 122.057 18.6101 122.212 18.8844ZM122.388 18.9466C122.513 19.1834 122.615 19.4312 122.694 19.6865C122.907 19.5631 123.108 19.4217 123.294 19.2647C123.247 19.0245 123.178 18.7895 123.091 18.5625C122.871 18.7105 122.637 18.8394 122.388 18.9466ZM123.043 18.4443C122.821 18.5963 122.582 18.7282 122.329 18.8367C122.176 18.5654 121.994 18.3097 121.784 18.0749L121.976 18.0126C122.214 17.9352 122.441 17.8391 122.656 17.7265C122.808 17.9528 122.937 18.1933 123.043 18.4443ZM123.196 18.4893C123.283 18.7098 123.352 18.9377 123.402 19.1707C123.568 19.0205 123.723 18.8574 123.863 18.6833C123.839 18.4597 123.798 18.24 123.739 18.0261C123.572 18.1943 123.39 18.3495 123.196 18.4893ZM123.699 17.8887C123.53 18.0643 123.346 18.2258 123.147 18.3708C123.042 18.1251 122.914 17.8893 122.765 17.6668C123.001 17.5343 123.221 17.3816 123.424 17.2115C123.535 17.4282 123.627 17.6547 123.699 17.8887ZM123.364 17.099C123.233 16.8604 123.078 16.6348 122.904 16.4256C122.702 16.5601 122.486 16.6794 122.257 16.7813L122.073 16.8632C122.306 17.0747 122.514 17.31 122.695 17.5638C122.935 17.4294 123.159 17.2734 123.364 17.099ZM122.584 17.6234C122.401 17.3669 122.188 17.1301 121.949 16.9187L120.959 17.3592C121.229 17.5389 121.473 17.7457 121.691 17.9742L121.937 17.8942C122.164 17.8206 122.38 17.7297 122.584 17.6234ZM121.559 18.017C121.34 17.7938 121.095 17.5928 120.824 17.4196L119.771 17.8881L120.019 18.0314C120.192 18.1308 120.354 18.2403 120.508 18.3587L121.559 18.017ZM120.363 18.4056C120.234 18.3103 120.099 18.2212 119.957 18.1392L119.631 17.9508L118.709 18.3609L119.263 18.7631L120.363 18.4056ZM119.116 18.8107L118.578 18.4194L118.022 18.667C117.944 18.7016 117.866 18.7353 117.788 18.7682L118.175 19.1166L119.116 18.8107ZM118.038 19.161L117.661 18.8211C117.421 18.9188 117.179 19.0089 116.935 19.0912L117.231 19.4193C117.33 19.3898 117.429 19.359 117.528 19.3269L118.038 19.161ZM117.098 19.458L116.806 19.134C116.584 19.2063 116.36 19.2723 116.135 19.3319L116.361 19.6438C116.608 19.5896 116.854 19.5276 117.098 19.458ZM116.228 19.6723L116.005 19.3654C115.8 19.4173 115.594 19.464 115.387 19.5053L115.553 19.7935C115.779 19.7594 116.004 19.7191 116.228 19.6723ZM115.421 19.8129L115.258 19.5304C113.672 19.8297 112.041 19.8197 110.455 19.498C112.071 19.9377 113.76 20.0454 115.421 19.8129ZM110.956 19.4628C112.361 19.691 113.794 19.6748 115.192 19.4161L115.053 19.1765C113.716 19.4964 112.332 19.5943 110.956 19.4628ZM115.179 19.1457L115.321 19.3914C115.524 19.3516 115.726 19.3068 115.926 19.2568L115.735 18.993C115.551 19.0482 115.365 19.0991 115.179 19.1457ZM115.657 18.8862C115.477 18.9394 115.296 18.9885 115.114 19.0334L114.747 18.3971C114.325 17.6666 114.16 16.8215 114.268 15.9943C114.326 16.7097 114.579 17.4021 115.008 17.9924L115.657 18.8862ZM115.861 18.9545L116.056 19.2237C116.277 19.1662 116.497 19.1025 116.715 19.0326L116.461 18.7507C116.262 18.8238 116.062 18.8917 115.861 18.9545ZM116.371 18.6509C116.177 18.7216 115.981 18.7873 115.783 18.848L115.108 17.9192C114.613 17.2366 114.359 16.4133 114.38 15.5791C114.513 16.2847 114.837 16.947 115.325 17.4893L116.371 18.6509ZM116.586 18.7038L116.844 18.9903C117.084 18.9105 117.322 18.8232 117.558 18.7284L117.234 18.4367C117.02 18.5319 116.804 18.621 116.586 18.7038ZM117.132 18.3454C116.923 18.4378 116.711 18.5241 116.497 18.6044L115.418 17.406C114.856 16.7818 114.519 15.9937 114.45 15.1661L114.451 15.1611C114.658 15.8465 115.048 16.4689 115.589 16.9557L117.132 18.3454ZM117.358 18.3806L117.686 18.6761C117.781 18.6364 117.876 18.5954 117.971 18.5532L118.461 18.3349L118.05 18.0363C117.822 18.1585 117.591 18.2733 117.358 18.3806ZM117.938 17.9549C117.714 18.0738 117.487 18.1854 117.257 18.2898L115.672 16.8632C115.09 16.339 114.688 15.6527 114.51 14.9006C114.515 14.8804 114.519 14.8602 114.523 14.84C114.803 15.455 115.239 15.9935 115.795 16.3976L117.938 17.9549ZM118.172 17.9704L118.593 18.2764L119.497 17.8738L118.921 17.5409L118.393 17.8454C118.32 17.8879 118.246 17.9295 118.172 17.9704ZM118.796 17.469L118.331 17.7375C118.241 17.7894 118.151 17.84 118.06 17.8894L115.868 16.2969C115.281 15.87 114.832 15.2883 114.567 14.6245C114.573 14.5904 114.58 14.5563 114.586 14.5222C114.924 15.0531 115.387 15.5006 115.942 15.8211L118.796 17.469ZM119.045 17.469L119.638 17.8112L120.695 17.3405C120.557 17.2591 120.413 17.1847 120.263 17.118L119.919 16.9647L119.045 17.469ZM119.778 16.9021L118.921 17.3971L116.004 15.7132C115.426 15.3793 114.95 14.9029 114.619 14.3366C114.626 14.2911 114.634 14.2456 114.641 14.2001C115.018 14.6383 115.49 14.9927 116.028 15.2322L119.778 16.9021ZM120.052 16.8877L120.314 17.0042C120.495 17.0851 120.669 17.177 120.834 17.2787L121.844 16.829C121.603 16.6299 121.337 16.4557 121.05 16.3117L120.052 16.8877ZM120.913 16.2466L119.911 16.8251L116.078 15.1184C115.523 14.8714 115.041 14.4983 114.666 14.0353C114.674 13.9796 114.681 13.9239 114.688 13.8682C115.083 14.21 115.545 14.4733 116.051 14.6377L120.461 16.0704C120.617 16.1211 120.768 16.18 120.913 16.2466ZM121.178 16.2376C121.465 16.3881 121.73 16.5682 121.97 16.7726L122.207 16.6675C122.424 16.5706 122.629 16.4576 122.822 16.3305C122.612 16.0946 122.376 15.8814 122.116 15.6961L121.178 16.2376ZM122.002 15.6179L121.045 16.1706C120.871 16.0867 120.688 16.0134 120.499 15.9519L116.09 14.5192C115.572 14.3512 115.102 14.0764 114.707 13.7182C114.714 13.6528 114.722 13.5873 114.728 13.5218C115.118 13.7681 115.553 13.9462 116.013 14.044L120.548 15.008C121.083 15.1217 121.573 15.3325 122.002 15.6179ZM114.611 13.4447C114.599 13.4369 114.588 13.4291 114.577 13.4212C114.575 13.4772 114.574 13.5333 114.571 13.5895C114.579 13.5968 114.586 13.6041 114.594 13.6114C114.6 13.5558 114.605 13.5003 114.611 13.4447ZM114.576 13.7667C114.572 13.7631 114.568 13.7595 114.564 13.7559C114.562 13.8019 114.559 13.8479 114.556 13.8939L114.559 13.8974C114.565 13.8539 114.57 13.8103 114.576 13.7667ZM114.451 13.4635C114.452 13.4196 114.453 13.3758 114.454 13.332C114.45 13.3288 114.446 13.3257 114.441 13.3225C114.444 13.3684 114.446 13.4144 114.448 13.4604L114.451 13.4635ZM113.591 11.9111C113.575 11.8704 113.558 11.8299 113.54 11.7894C113.535 11.7883 113.53 11.7871 113.525 11.7859C113.547 11.827 113.567 11.8682 113.588 11.9095L113.591 11.9111ZM113.449 11.6381C113.459 11.6408 113.468 11.6434 113.478 11.6459C113.456 11.5948 113.433 11.5438 113.41 11.493C113.396 11.492 113.383 11.4909 113.369 11.4897C113.396 11.539 113.422 11.5885 113.449 11.6381ZM113.218 11.4739C113.239 11.5122 113.26 11.5507 113.281 11.5893L113.278 11.5881C113.253 11.5493 113.228 11.5105 113.203 11.472C113.208 11.4726 113.213 11.4733 113.218 11.4739ZM113.296 11.3575C113.314 11.3595 113.332 11.3613 113.35 11.3629C113.321 11.3021 113.292 11.2415 113.262 11.1812C113.241 11.183 113.219 11.1846 113.198 11.186C113.231 11.2429 113.263 11.3001 113.296 11.3575ZM113.057 11.1927C113.086 11.2408 113.114 11.2892 113.141 11.3377C113.131 11.3362 113.121 11.3346 113.111 11.333C113.08 11.2864 113.048 11.2399 113.016 11.1937C113.03 11.1935 113.044 11.1931 113.057 11.1927ZM113.126 11.0653C113.152 11.0641 113.177 11.0626 113.202 11.0608C113.167 10.9905 113.131 10.9205 113.094 10.8509C113.065 10.858 113.037 10.8647 113.008 10.8712C113.048 10.9355 113.087 11.0002 113.126 11.0653ZM112.878 10.898C112.914 10.9549 112.949 11.0121 112.984 11.0697C112.966 11.0699 112.948 11.07 112.93 11.0699C112.891 11.0161 112.853 10.9627 112.814 10.9096C112.835 10.9059 112.857 10.9021 112.878 10.898ZM112.937 10.7591C112.969 10.7523 113.001 10.7451 113.033 10.7374C111.954 8.74359 110.337 7.0675 108.341 5.91518L104.993 3.98235C104.502 3.69861 103.977 3.52511 103.447 3.45418C103.358 3.71136 103.293 3.97682 103.255 4.24659C103.49 4.30654 103.723 4.38705 103.952 4.48902L107.483 6.06133C109.739 7.06579 111.629 8.70743 112.937 10.7591ZM103.239 4.37113C103.462 4.42894 103.684 4.5059 103.901 4.60281L107.433 6.17512C109.651 7.16279 111.512 8.77272 112.806 10.7846C112.781 10.789 112.756 10.7931 112.731 10.797C111.197 8.75152 109.06 7.21092 106.595 6.41017L103.239 5.31977C103.203 5.0027 103.203 4.68444 103.239 4.37113ZM103.133 4.21743C103.172 3.95275 103.234 3.69215 103.321 3.43918C103.076 3.41395 102.83 3.41045 102.587 3.42792C102.485 3.65017 102.402 3.88031 102.339 4.11545C102.604 4.12463 102.869 4.15822 103.133 4.21743ZM102.308 4.23912C102.577 4.24676 102.848 4.28042 103.117 4.34148C103.081 4.65059 103.078 4.96448 103.11 5.27758L102.919 5.21561C102.68 5.13811 102.44 5.08239 102.2 5.04734C102.21 4.77501 102.246 4.50425 102.308 4.23912ZM102.211 4.1129C102.27 3.88346 102.349 3.65851 102.445 3.44059C102.222 3.46422 102.002 3.50554 101.786 3.56394C101.673 3.75878 101.578 3.96095 101.499 4.16829C101.733 4.13047 101.972 4.1117 102.211 4.1129ZM101.451 4.30288C101.691 4.2601 101.935 4.23794 102.181 4.23744C102.122 4.49804 102.086 4.76379 102.076 5.03106C101.807 4.99977 101.54 4.99414 101.276 5.01265C101.313 4.77224 101.372 4.53468 101.451 4.30288ZM101.258 5.13888C101.224 5.40905 101.216 5.68215 101.235 5.95407C101.477 5.96383 101.722 5.99412 101.967 6.04626L102.163 6.08794C102.099 5.77983 102.069 5.46733 102.073 5.15613C101.799 5.12351 101.526 5.11834 101.258 5.13888ZM102.197 5.17286C102.195 5.48817 102.228 5.80475 102.297 6.11633L103.356 6.34147C103.243 6.03752 103.167 5.72641 103.125 5.41372L102.88 5.33407C102.654 5.26042 102.425 5.20702 102.197 5.17286ZM103.257 5.45656C103.303 5.76567 103.384 6.07282 103.501 6.3723L105.748 6.84998C108.395 7.41245 110.77 8.81424 112.535 10.8222C112.553 10.8203 112.571 10.8184 112.589 10.8162C111.073 8.81878 108.974 7.31414 106.557 6.52863L103.257 5.45656ZM112.675 10.9309C112.661 10.9328 112.648 10.9346 112.634 10.9363C112.671 10.9789 112.707 11.0217 112.743 11.0649C112.753 11.0654 112.764 11.0659 112.774 11.0663C112.741 11.021 112.708 10.9758 112.675 10.9309ZM112.864 11.1938C112.859 11.1937 112.854 11.1936 112.849 11.1934C112.878 11.2292 112.907 11.2651 112.935 11.3012L112.939 11.302C112.915 11.2658 112.89 11.2297 112.864 11.1938ZM112.569 11.0519C112.541 11.0185 112.512 10.9853 112.483 10.9522C112.478 10.9526 112.473 10.9531 112.468 10.9535C112.5 10.986 112.533 11.0186 112.565 11.0515L112.569 11.0519ZM112.349 10.8367C112.359 10.8361 112.37 10.8355 112.38 10.8349C110.639 8.88414 108.312 7.52217 105.722 6.97181L103.559 6.51188C103.622 6.65909 103.695 6.8042 103.778 6.94651L103.966 7.27235L104.952 7.376C107.75 7.67004 110.351 8.89723 112.349 10.8367ZM104.043 7.40568L104.939 7.49987C107.668 7.78672 110.208 8.97048 112.175 10.842H112.17C109.982 9.03534 107.234 8.02032 104.376 7.98344L104.043 7.40568ZM103.813 7.25625L103.67 7.00878C103.57 6.83624 103.484 6.65969 103.41 6.48031L102.329 6.25049C102.407 6.55318 102.519 6.85025 102.667 7.13585L103.813 7.25625ZM102.739 7.26865L103.89 7.38959L104.232 7.98241C104.226 7.9824 104.22 7.98239 104.215 7.98239L103.223 7.9824L103.002 7.67792C102.905 7.54501 102.818 7.40835 102.739 7.26865ZM102.52 7.12035C102.376 6.8298 102.267 6.52834 102.193 6.22167L101.941 6.1681C101.708 6.11854 101.475 6.08931 101.245 6.07919C101.276 6.39305 101.341 6.7045 101.443 7.00718L102.52 7.12035ZM101.489 7.13725L102.588 7.25278C102.68 7.42346 102.784 7.58997 102.901 7.75113L103.069 7.9824H101.918C101.741 7.71384 101.598 7.43016 101.489 7.13725ZM102.003 8.10695C102.096 8.23758 102.197 8.36426 102.307 8.4863L102.559 8.76604L103.545 8.6624C103.551 8.66181 103.556 8.66123 103.562 8.66065L103.16 8.10695H102.003ZM103.314 8.10695L103.706 8.64657C104 8.61952 104.293 8.60296 104.586 8.59673L104.304 8.10727C104.274 8.10706 104.244 8.10695 104.215 8.10695H103.314ZM104.449 8.10916L104.729 8.59451C107.24 8.56983 109.701 9.30264 111.79 10.6971C109.694 9.07433 107.122 8.15968 104.449 8.10916ZM111.36 10.5692C109.392 9.35154 107.119 8.70898 104.801 8.71857L105.047 9.14554C107.234 9.05767 109.413 9.546 111.36 10.5692ZM104.907 9.15196L104.658 8.71999C104.369 8.72452 104.08 8.73914 103.791 8.76402L104.121 9.21737C104.382 9.18723 104.645 9.16544 104.907 9.15196ZM104.205 9.33326C104.462 9.30514 104.72 9.28515 104.977 9.27324L105.195 9.65022C104.961 9.67094 104.727 9.69828 104.495 9.73225L104.205 9.33326ZM103.979 9.23448L103.647 8.77729C103.617 8.78018 103.588 8.78317 103.558 8.78627L102.662 8.88045L103.109 9.37611C103.398 9.3185 103.688 9.27132 103.979 9.23448ZM103.206 9.48399C103.491 9.42903 103.776 9.38428 104.063 9.34963L104.356 9.75328C104.097 9.7941 103.838 9.84317 103.581 9.90052L103.206 9.48399ZM103.677 10.007L104.007 10.3735C104.235 10.3154 104.464 10.2638 104.694 10.2187L104.438 9.86658C104.183 9.90534 103.929 9.95212 103.677 10.007ZM104.577 9.84623L104.829 10.193C105.036 10.155 105.243 10.1222 105.451 10.0946L105.263 9.7693C105.034 9.78853 104.806 9.81416 104.577 9.84623ZM105.401 9.75853L105.585 10.0776C107.218 9.87924 108.883 10.004 110.482 10.4546C108.851 9.86858 107.119 9.63359 105.401 9.75853ZM110.037 10.4663C108.598 10.1137 107.113 10.0239 105.653 10.195L105.71 10.2943C105.743 10.3512 105.775 10.4089 105.805 10.4671C107.197 10.2275 108.629 10.2245 110.037 10.4663ZM105.676 10.4899C105.652 10.4451 105.628 10.4006 105.603 10.3565L105.519 10.2115C105.315 10.2375 105.113 10.2687 104.911 10.3049L105.127 10.603C105.309 10.5612 105.492 10.5235 105.676 10.4899ZM105.207 10.7126C105.382 10.6732 105.558 10.6377 105.734 10.6059C106.105 11.3727 106.208 12.2426 106.027 13.0765C106.017 12.2651 105.757 11.4705 105.274 10.8053L105.207 10.7126ZM104.996 10.6339L104.775 10.33C104.549 10.373 104.324 10.4224 104.101 10.4782L104.388 10.7968C104.589 10.7373 104.792 10.6831 104.996 10.6339ZM104.48 10.8995C104.677 10.8424 104.876 10.7902 105.075 10.7431L105.173 10.8785C105.733 11.6483 105.983 12.5972 105.88 13.5387C105.786 12.733 105.444 11.97 104.894 11.359L104.48 10.8995ZM104.348 10.9386C104.128 11.005 103.91 11.0776 103.693 11.1564L104.574 11.9494C105.185 12.4993 105.604 13.2221 105.782 14.0133C105.786 13.0665 105.438 12.1493 104.801 11.4424L104.348 10.9386ZM109.131 19.0222C111.068 19.5087 113.076 19.5153 114.988 19.0639L114.639 18.4594C114.116 17.5538 113.975 16.4776 114.245 15.4675C114.252 15.4433 114.258 15.419 114.265 15.3948C114.273 15.2825 114.285 15.1701 114.303 15.0581C114.307 15.0331 114.311 15.0082 114.315 14.9832C114.311 14.8708 114.312 14.7579 114.318 14.6447C114.319 14.6192 114.321 14.5936 114.322 14.568C114.306 14.457 114.296 14.3449 114.29 14.232C114.288 14.2068 114.287 14.1816 114.286 14.1564C114.259 14.0472 114.236 13.9366 114.218 13.8246C114.214 13.7997 114.21 13.7747 114.206 13.7497C114.168 13.6441 114.134 13.5364 114.105 13.427C114.098 13.4023 114.091 13.3777 114.085 13.3531C114.036 13.2522 113.991 13.1488 113.95 13.0433C113.941 13.0194 113.932 12.9957 113.923 12.9719C113.863 12.8767 113.808 12.7786 113.757 12.6779C113.745 12.6554 113.734 12.633 113.722 12.6107C113.653 12.5219 113.587 12.4299 113.526 12.3348C113.512 12.3139 113.498 12.2931 113.485 12.2723C113.406 12.191 113.331 12.1062 113.26 12.0178C113.244 11.9985 113.228 11.9792 113.213 11.96C113.126 11.8873 113.043 11.8108 112.962 11.7304C112.945 11.7125 112.927 11.6947 112.909 11.6769C112.816 11.6139 112.725 11.5467 112.637 11.4755C112.617 11.4594 112.597 11.4433 112.577 11.4274C112.478 11.3746 112.381 11.3174 112.287 11.2559C112.266 11.2423 112.245 11.2287 112.223 11.2152C112.119 11.1728 112.016 11.1259 111.915 11.0743C111.893 11.0629 111.87 11.0516 111.848 11.0404C111.74 11.0092 111.632 10.9733 111.526 10.9326C111.503 10.9237 111.48 10.9148 111.456 10.906C111.345 10.8863 111.235 10.8617 111.125 10.8323C109.392 10.368 107.597 10.2905 105.862 10.5837C106.258 11.4242 106.347 12.3817 106.104 13.2861C106.047 13.4999 105.996 13.7147 105.95 13.9302C105.928 14.085 105.909 14.2399 105.893 14.395C105.887 14.5507 105.884 14.7063 105.884 14.8616C105.895 15.0189 105.909 15.1758 105.925 15.3321C105.952 15.4864 105.982 15.6399 106.014 15.7926C106.057 15.9428 106.103 16.0919 106.151 16.2399C106.209 16.3854 106.27 16.5295 106.334 16.6722C106.408 16.8117 106.484 16.9495 106.563 17.0855C106.651 17.2163 106.741 17.3452 106.833 17.4722C106.934 17.5925 107.037 17.7106 107.141 17.8266C107.253 17.935 107.367 18.041 107.482 18.1447C107.605 18.241 107.729 18.3347 107.855 18.4259C107.989 18.5102 108.125 18.5917 108.262 18.6705C108.402 18.7394 108.544 18.8055 108.687 18.8689C108.834 18.9229 108.982 18.974 109.131 19.0222ZM110.926 10.4898C109.116 9.61592 107.121 9.19768 105.118 9.26754L105.332 9.63881C107.229 9.49166 109.144 9.77926 110.926 10.4898ZM109.955 19.481C111.769 20.1856 113.73 20.4545 115.677 20.2577L115.488 19.9291C113.634 20.1964 111.742 20.0433 109.955 19.481ZM101.357 4.19369C101.148 4.23456 100.943 4.29064 100.743 4.36127C100.832 4.18123 100.935 4.00603 101.052 3.83717C101.235 3.74923 101.423 3.67465 101.615 3.61384C101.514 3.80162 101.428 3.99549 101.357 4.19369ZM123.839 17.922C123.984 17.7662 124.117 17.6003 124.238 17.4256C124.271 17.6237 124.291 17.8259 124.296 18.0311C124.2 18.2095 124.091 18.3805 123.971 18.5428C123.943 18.3317 123.898 18.1242 123.839 17.922ZM96.1575 17.6358C96.1579 17.5451 96.1612 17.4545 96.1672 17.3642C96.1288 17.2813 96.0927 17.1967 96.0592 17.1105C96.0805 17.286 96.1132 17.4614 96.1575 17.6358ZM96.0286 16.6163C96.0481 16.6897 96.0698 16.763 96.0935 16.8361C96.1235 16.9285 96.1564 17.019 96.192 17.1078C96.2143 16.9321 96.2473 16.758 96.2907 16.5866C96.2041 16.4328 96.1263 16.2726 96.0582 16.1065C96.0381 16.275 96.0281 16.4453 96.0286 16.6163ZM96.096 15.8551C96.1639 16.049 96.2451 16.2353 96.3383 16.4134C96.3988 16.2101 96.474 16.0112 96.5636 15.8184C96.4452 15.6442 96.3389 15.4606 96.2463 15.2687C96.1823 15.46 96.1321 15.656 96.096 15.8551ZM96.1716 15.1054C96.1106 15.2711 96.0597 15.4406 96.0192 15.6129C95.993 15.5209 95.9698 15.4273 95.9496 15.3324C95.9336 15.2571 95.9197 15.1819 95.9079 15.1068C95.9253 14.9369 95.953 14.769 95.9906 14.6037C96.0409 14.776 96.1015 14.9434 96.1716 15.1054ZM96.306 15.1016C96.3977 15.3068 96.5052 15.5029 96.6267 15.6884C96.7338 15.4767 96.8585 15.2731 97.0004 15.08C96.8496 14.8971 96.7134 14.7017 96.5938 14.4956C96.4819 14.6898 96.3857 14.8925 96.306 15.1016ZM96.5234 14.3695C96.4141 14.552 96.3184 14.7421 96.237 14.938C96.1629 14.7513 96.1016 14.5575 96.0543 14.3577C96.111 14.1632 96.1816 13.9734 96.2652 13.7896C96.3373 13.9902 96.4238 14.1839 96.5234 14.3695ZM96.6673 14.3729C96.7867 14.5867 96.9242 14.789 97.0777 14.9778C97.2406 14.7694 97.424 14.5742 97.627 14.3956C97.4354 14.2088 97.2615 14.0048 97.1074 13.7863C96.9431 13.9696 96.796 14.166 96.6673 14.3729ZM97.0351 13.6806C96.8738 13.8578 96.7283 14.0474 96.5997 14.2468C96.4982 14.0496 96.4118 13.8434 96.3421 13.6297C96.4432 13.43 96.5601 13.2384 96.6918 13.0568C96.7892 13.2744 96.9042 13.4829 97.0351 13.6806ZM97.1939 13.6928C97.3495 13.9163 97.5264 14.1245 97.7221 14.3143C97.9086 14.1596 98.1106 14.0184 98.3276 13.8932L98.5022 13.7923C98.2482 13.6063 98.0169 13.3941 97.8111 13.1605C97.5859 13.3192 97.3797 13.4979 97.1939 13.6928ZM97.7298 13.0654C97.5092 13.2218 97.3064 13.3968 97.1227 13.5871C96.9897 13.3832 96.8741 13.1676 96.7777 12.9425C96.9274 12.7502 97.0941 12.5702 97.2767 12.4052C97.4071 12.6385 97.5588 12.8596 97.7298 13.0654ZM97.9148 13.0897C98.1241 13.3256 98.3605 13.5388 98.6204 13.7241L99.5582 13.1826C99.2712 13.0321 99.0062 12.852 98.766 12.6475L98.5297 12.7528C98.3122 12.8496 98.107 12.9626 97.9148 13.0897ZM98.6631 12.557L98.479 12.639C98.2502 12.7409 98.0345 12.8601 97.8329 12.9945C97.6581 12.7853 97.5039 12.5598 97.3725 12.3212C97.5777 12.1468 97.8014 11.9907 98.0419 11.8564C98.2221 12.1102 98.43 12.3455 98.6631 12.557ZM98.8927 12.5912C99.1335 12.7903 99.399 12.9645 99.6867 13.1085L100.684 12.5327L100.422 12.4162C100.241 12.3353 100.067 12.2434 99.9024 12.1416L98.8927 12.5912ZM99.7769 12.0611L98.7878 12.5015C98.5486 12.2901 98.3359 12.0533 98.1524 11.7968C98.3568 11.6905 98.5728 11.5996 98.7992 11.526L99.045 11.4461C99.2625 11.6746 99.5072 11.8814 99.7769 12.0611ZM100.041 12.0799C100.179 12.1613 100.323 12.2357 100.473 12.3024L100.817 12.4557L101.675 11.9603C101.68 11.9574 101.685 11.9545 101.69 11.9516L101.098 11.6094L100.041 12.0799ZM100.964 11.5324L99.9124 12.0008C99.6414 11.8275 99.3955 11.6265 99.1768 11.4033L100.228 11.0618C100.381 11.1802 100.544 11.2898 100.717 11.3893L100.964 11.5324ZM101.238 11.5468L101.816 11.8803C102.073 11.7361 102.335 11.6016 102.6 11.4767L102.143 11.1444C102.116 11.1563 102.088 11.1683 102.061 11.1805L101.238 11.5468ZM102.026 11.0597C102.021 11.062 102.016 11.0643 102.01 11.0667L101.105 11.4698L100.779 11.2815C100.637 11.1994 100.501 11.1103 100.372 11.0149L101.472 10.6574L102.026 11.0597ZM101.348 10.5669L101.116 10.3987C100.955 10.2817 100.805 10.1557 100.665 10.0218L99.5835 10.2516C99.7777 10.4965 100.001 10.7221 100.253 10.9228L101.348 10.5669ZM100.112 10.9686C99.8621 10.7617 99.6404 10.5305 99.4479 10.2805L99.1955 10.3341C98.9625 10.3836 98.7382 10.4515 98.5236 10.5359C98.6793 10.8102 98.8662 11.0679 99.0819 11.3032L100.112 10.9686ZM98.9521 11.3454C98.7424 11.1106 98.5602 10.8549 98.4075 10.5837C98.1544 10.6921 97.9156 10.8239 97.6935 10.9759C97.7992 11.2269 97.9289 11.4673 98.0809 11.6936C98.2955 11.581 98.5224 11.485 98.7607 11.4075L98.9521 11.3454ZM97.9709 11.7533C97.8224 11.5308 97.6947 11.2951 97.5894 11.0494C97.3906 11.1944 97.206 11.3559 97.0371 11.5315C97.1094 11.7655 97.2018 11.992 97.3128 12.2086C97.5154 12.0386 97.7353 11.8858 97.9709 11.7533ZM97.2158 12.2924C97.1064 12.0822 97.0138 11.8628 96.9397 11.6362C96.7897 11.803 96.6534 11.9814 96.532 12.1693C96.579 12.3892 96.6434 12.6033 96.7237 12.81C96.8725 12.6252 97.0369 12.4519 97.2158 12.2924ZM96.635 12.9241C96.5553 12.729 96.4896 12.5273 96.4388 12.3204C96.3364 12.4945 96.2463 12.6761 96.1695 12.8637C96.1957 13.0673 96.2364 13.2664 96.2906 13.4598C96.392 13.2733 96.5071 13.0942 96.635 12.9241ZM96.208 13.6194C96.1552 13.451 96.1125 13.2782 96.0804 13.1017C96.0257 13.2625 95.9805 13.427 95.9455 13.5945C95.9493 13.67 95.9553 13.7458 95.9633 13.8219C95.9734 13.9186 95.9868 14.0143 96.0032 14.1087C96.0615 13.9415 96.1299 13.7781 96.208 13.6194ZM95.9257 14.3544C95.9053 14.2655 95.8877 14.1755 95.8728 14.0844C95.8573 14.2601 95.8528 14.4381 95.8599 14.6174C95.8791 14.5289 95.901 14.4412 95.9257 14.3544ZM95.9487 13.1027C95.9771 13.0164 96.0082 12.9311 96.0419 12.847C96.031 12.7561 96.0228 12.6644 96.0175 12.5719C95.9836 12.7457 95.9604 12.9229 95.9487 13.1027ZM96.141 12.0924C96.137 12.1681 96.1349 12.2444 96.1349 12.3211C96.1349 12.4184 96.1382 12.515 96.1447 12.6107C96.2203 12.4503 96.3054 12.2948 96.3997 12.1451C96.3648 11.9719 96.3404 11.7954 96.3269 11.6163C96.2556 11.7705 96.1935 11.9294 96.141 12.0924ZM96.4405 11.3889C96.4452 11.5944 96.4649 11.7968 96.4985 11.995C96.6189 11.8202 96.7521 11.6541 96.897 11.4982C96.8382 11.2959 96.7939 11.0883 96.765 10.877C96.645 11.0394 96.5364 11.2105 96.4405 11.3889ZM96.7445 10.6987C96.6351 10.8376 96.5341 10.9833 96.4423 11.1348C96.4458 11.0392 96.4526 10.943 96.4628 10.8464C96.4708 10.7698 96.4809 10.694 96.4929 10.6189C96.562 10.4624 96.6404 10.311 96.7274 10.1652C96.722 10.3447 96.7279 10.5228 96.7445 10.6987ZM96.8735 10.7366C96.8973 10.9603 96.9389 11.1801 96.9972 11.3941C97.1644 11.2259 97.3461 11.0707 97.5406 10.9309C97.4537 10.7103 97.3846 10.4824 97.3345 10.2493C97.168 10.3994 97.0139 10.5624 96.8735 10.7366ZM97.3066 10.1076C97.1462 10.2474 96.9964 10.3986 96.8585 10.5597C96.8457 10.3591 96.8473 10.1558 96.8641 9.951C96.9781 9.78366 97.1039 9.62496 97.2402 9.47608C97.2468 9.68918 97.2692 9.90021 97.3066 10.1076ZM97.4423 10.1553C97.4898 10.3956 97.5581 10.6306 97.6458 10.8577C97.865 10.7098 98.0996 10.5809 98.3477 10.4737C98.2233 10.2369 98.1209 9.98913 98.0418 9.73378C97.8291 9.85716 97.6286 9.99843 97.4423 10.1553ZM98.0057 9.61081C97.7977 9.72951 97.6009 9.86474 97.417 10.0145C97.3814 9.79557 97.363 9.57267 97.3628 9.34776C97.5205 9.1893 97.6908 9.04333 97.872 8.91146C97.8975 9.14849 97.9423 9.3824 98.0057 9.61081ZM98.153 9.67153C98.2319 9.9322 98.3358 10.1849 98.4633 10.4258C98.6886 10.3363 98.9244 10.2644 99.1696 10.2123L99.3661 10.1705C99.1821 9.91515 99.0276 9.64182 98.9042 9.35611C98.6411 9.43752 98.3899 9.54364 98.153 9.67153ZM98.8562 9.24057C98.5982 9.32115 98.3514 9.42483 98.118 9.54898C98.0545 9.31403 98.0112 9.07321 97.9891 8.82927C98.1907 8.69271 98.4048 8.57316 98.6293 8.47268C98.6813 8.73489 98.7572 8.99204 98.8562 9.24057ZM99.0247 9.32081C99.1508 9.60982 99.3097 9.88564 99.4996 10.1421L100.559 9.91702C100.332 9.68516 100.136 9.43204 99.9707 9.16334L99.7138 9.19034C99.477 9.21524 99.2468 9.2593 99.0247 9.32081ZM99.9008 9.04545L99.7008 9.06647C99.4516 9.09266 99.2095 9.13947 98.9761 9.20501C98.8746 8.95207 98.7977 8.68988 98.7465 8.4224C98.9954 8.31995 99.2564 8.24064 99.5266 8.18718C99.6195 8.48424 99.7445 8.77223 99.9008 9.04545ZM99.4909 8.06725C99.4184 7.80972 99.3698 7.54605 99.3456 7.27984C99.1118 7.35633 98.8863 7.45287 98.6715 7.56764C98.6679 7.81255 98.6858 8.05656 98.7244 8.29685C98.9696 8.19776 99.2259 8.12043 99.4909 8.06725ZM98.6063 8.34662C98.5671 8.11284 98.547 7.87554 98.5465 7.63716C98.3524 7.7494 98.1678 7.87681 97.9943 8.01794C97.9711 8.24161 97.9661 8.46518 97.9786 8.68662C98.1771 8.55686 98.387 8.44293 98.6063 8.34662ZM97.859 8.76764C97.8435 8.55753 97.8433 8.34536 97.859 8.13278C97.708 8.26657 97.5664 8.41121 97.4355 8.56567C97.3974 8.76751 97.3746 8.96951 97.3663 9.17032C97.5203 9.02449 97.685 8.88983 97.859 8.76764ZM97.2384 9.29654C97.2403 9.12 97.2531 8.94235 97.2772 8.76447C97.1755 8.90028 97.0818 9.04262 96.9967 9.19091C96.9769 9.26435 96.959 9.33872 96.943 9.41399C96.9228 9.50892 96.906 9.60379 96.8925 9.69846C96.9996 9.55748 97.1152 9.42326 97.2384 9.29654ZM96.7428 9.90808C96.7509 9.817 96.762 9.72565 96.7761 9.63415C96.7068 9.79694 96.6473 9.96532 96.5984 10.1386C96.6442 10.0602 96.6923 9.9833 96.7428 9.90808ZM97.1519 8.72433C97.2055 8.65115 97.2614 8.57979 97.3193 8.51032C97.337 8.42065 97.3575 8.33104 97.3811 8.24157C97.2952 8.39611 97.2185 8.55721 97.1519 8.72433ZM97.6468 7.82374C97.6195 7.89462 97.5939 7.96663 97.5701 8.03972C97.5401 8.13206 97.5135 8.22469 97.4901 8.31747C97.6114 8.1885 97.7403 8.06714 97.876 7.95402C97.8963 7.7787 97.9276 7.60341 97.9701 7.42906C97.8549 7.55347 97.7468 7.68521 97.6468 7.82374ZM98.1484 7.24787C98.0894 7.44457 98.0456 7.64304 98.0164 7.84184C98.1848 7.71287 98.3627 7.59612 98.5485 7.49276C98.5551 7.2822 98.5771 7.07119 98.6149 6.86144C98.4507 6.97875 98.2947 7.10786 98.1484 7.24787ZM98.6505 6.68541C98.5036 6.78377 98.3627 6.89105 98.2286 7.0067C98.2616 6.91678 98.2978 6.82736 98.3373 6.73858C98.3685 6.66851 98.4014 6.59971 98.4359 6.5322C98.5499 6.40478 98.6713 6.28497 98.7989 6.1732C98.7384 6.34214 98.689 6.51319 98.6505 6.68541ZM98.7615 6.76135C98.715 6.98135 98.6867 7.20315 98.6759 7.42468C98.887 7.31634 99.1076 7.22494 99.3359 7.15205C99.3213 6.91548 99.3261 6.67737 99.3505 6.44025C99.1458 6.53163 98.9488 6.63908 98.7615 6.76135ZM99.3677 6.29686C99.1719 6.38025 98.9828 6.4778 98.8018 6.5885C98.8517 6.39385 98.916 6.20106 98.9952 6.01161C99.1553 5.88762 99.324 5.77549 99.4997 5.67596C99.4401 5.8806 99.3962 6.08815 99.3677 6.29686ZM99.5534 5.50461C99.6098 5.33732 99.6768 5.17232 99.7547 5.01059C99.616 5.10839 99.4828 5.21486 99.3561 5.32965C99.3146 5.39326 99.2747 5.45833 99.2363 5.52483C99.1877 5.609 99.1424 5.69414 99.1002 5.78012C99.2457 5.67909 99.397 5.5871 99.5534 5.50461ZM98.893 5.93331C98.9289 5.84925 98.9676 5.76584 99.0093 5.68321C98.8931 5.81656 98.7846 5.95827 98.6847 6.10794C98.7524 6.04748 98.8219 5.98926 98.893 5.93331ZM99.6479 4.93372C99.7215 4.88068 99.7967 4.83006 99.8733 4.78187C99.9178 4.70204 99.965 4.62317 100.015 4.54536C99.8856 4.66582 99.7629 4.79536 99.6479 4.93372ZM98.128 6.92008C98.0953 7.00652 98.0655 7.09342 98.0386 7.18068C97.9738 7.24367 97.9108 7.30875 97.8499 7.37586C97.9335 7.21676 98.0265 7.06468 98.128 6.92008ZM96.3198 11.0827C96.3154 11.1753 96.3139 11.2674 96.3153 11.3589C96.273 11.4391 96.2331 11.5207 96.1958 11.6036C96.2262 11.426 96.2678 11.2521 96.3198 11.0827ZM95.8867 15.6015C95.9111 15.6908 95.9381 15.7788 95.9677 15.8653C95.9522 15.9545 95.9395 16.0443 95.9296 16.1346C95.9038 15.9564 95.8896 15.7784 95.8867 15.6015ZM103.194 2.09965C103.28 2.07197 103.367 2.04705 103.455 2.0249C103.522 1.96274 103.591 1.90233 103.663 1.8438C103.502 1.91835 103.346 2.00362 103.194 2.09965ZM104.123 1.66192C104.059 1.7032 103.997 1.74642 103.934 1.79158C103.856 1.84865 103.78 1.90792 103.706 1.96925C103.88 1.93613 104.056 1.91368 104.232 1.90194C104.352 1.77207 104.48 1.64864 104.617 1.5326C104.451 1.56553 104.286 1.60862 104.123 1.66192ZM104.868 1.49081C104.705 1.61528 104.552 1.75007 104.412 1.8937C105.483 1.86663 106.565 2.23353 107.424 3.00676L110.297 5.5934C111.811 6.95715 112.955 8.65659 113.651 10.5328C113.707 10.5088 113.762 10.4833 113.817 10.4566C113.298 8.71627 112.396 7.09495 111.157 5.71942L108.571 2.84666C107.601 1.76998 106.203 1.30942 104.868 1.49081ZM113.93 10.3992C113.404 8.64965 112.496 7.01975 111.25 5.63607L108.663 2.76332C107.719 1.71478 106.38 1.2338 105.075 1.34288C105.154 1.28951 105.236 1.23846 105.32 1.18987C105.387 1.15149 105.454 1.11512 105.521 1.08075C107.103 0.739964 108.809 1.33086 109.821 2.72389L112.093 5.85128C113.068 7.19378 113.754 8.70443 114.127 10.289L114.055 10.3306C114.014 10.3543 113.972 10.3772 113.93 10.3992ZM113.853 10.5777C113.8 10.603 113.747 10.6271 113.694 10.65C113.732 10.7563 113.769 10.8632 113.804 10.9707C113.853 10.9594 113.901 10.9471 113.95 10.9338C113.919 10.8146 113.887 10.6959 113.853 10.5777ZM114.069 10.8989C114.037 10.7724 114.003 10.6464 113.966 10.5211C114.017 10.4947 114.067 10.4671 114.117 10.4384L114.156 10.416C114.187 10.5569 114.217 10.6984 114.243 10.8404C114.186 10.8613 114.128 10.8808 114.069 10.8989ZM113.98 11.0547C113.934 11.0672 113.889 11.0788 113.843 11.0896C113.873 11.1837 113.902 11.2781 113.929 11.3729C113.97 11.3705 114.011 11.3675 114.051 11.3638C114.029 11.2604 114.005 11.1574 113.98 11.0547ZM114.176 11.3503C114.152 11.2398 114.127 11.1296 114.1 11.0199C114.155 11.0027 114.211 10.9843 114.266 10.9646C114.287 11.0857 114.307 11.2071 114.325 11.3289C114.275 11.337 114.226 11.3442 114.176 11.3503ZM114.078 11.4864C114.04 11.49 114.002 11.493 113.964 11.4955C113.988 11.5788 114.01 11.6624 114.032 11.7462C114.065 11.7497 114.097 11.7527 114.13 11.7553C114.114 11.6655 114.096 11.5758 114.078 11.4864ZM114.258 11.7634C114.241 11.6662 114.222 11.5693 114.202 11.4726C114.249 11.4667 114.296 11.4599 114.342 11.4522C114.357 11.557 114.369 11.6619 114.381 11.7671C114.34 11.7665 114.299 11.7653 114.258 11.7634ZM114.153 11.882C114.123 11.8799 114.094 11.8774 114.065 11.8747C114.083 11.9483 114.1 12.0221 114.117 12.0961C114.142 12.1027 114.166 12.1092 114.191 12.1153C114.179 12.0374 114.166 11.9596 114.153 11.882ZM114.322 12.1456C114.309 12.0599 114.295 11.9743 114.28 11.889C114.318 11.8905 114.356 11.8914 114.394 11.8918C114.403 11.9827 114.411 12.0738 114.418 12.1649C114.386 12.1589 114.354 12.1524 114.322 12.1456ZM114.211 12.2483C114.19 12.2433 114.169 12.2382 114.148 12.2329C114.162 12.2972 114.175 12.3617 114.188 12.4264C114.205 12.4338 114.221 12.441 114.238 12.4482C114.229 12.3814 114.22 12.3148 114.211 12.2483ZM114.37 12.5023C114.361 12.427 114.351 12.3518 114.341 12.2767C114.37 12.2825 114.399 12.288 114.428 12.2932C114.433 12.3718 114.438 12.4505 114.441 12.5292C114.417 12.5205 114.394 12.5115 114.37 12.5023ZM114.568 12.5729C114.599 12.5831 114.631 12.5929 114.662 12.6023C114.665 12.5109 114.666 12.4196 114.667 12.3282C114.629 12.3239 114.591 12.319 114.554 12.3135C114.56 12.3999 114.564 12.4864 114.568 12.5729ZM114.545 12.1863C114.585 12.1925 114.626 12.198 114.667 12.2028C114.666 12.097 114.664 11.9912 114.661 11.8854C114.614 11.8882 114.567 11.8901 114.519 11.8911C114.529 11.9893 114.538 12.0878 114.545 12.1863ZM114.506 11.7668C114.556 11.7658 114.607 11.7639 114.657 11.7609C114.652 11.638 114.645 11.5152 114.636 11.3925C114.579 11.4064 114.522 11.4189 114.465 11.4301C114.48 11.5421 114.494 11.6543 114.506 11.7668ZM114.447 11.3066C114.507 11.2948 114.567 11.2814 114.627 11.2666C114.615 11.1226 114.601 10.9788 114.584 10.8354L114.543 10.8536C114.491 10.877 114.438 10.8991 114.384 10.9201C114.407 11.0486 114.428 11.1774 114.447 11.3066ZM114.361 10.7952C114.405 10.7776 114.449 10.7591 114.492 10.7398L114.568 10.706C114.548 10.5433 114.524 10.381 114.496 10.2193L114.269 10.3508C114.302 10.4983 114.333 10.6465 114.361 10.7952ZM114.239 10.224L114.474 10.0885C114.224 8.69074 113.733 7.33336 113.01 6.08012L111.077 2.73235C110.035 0.928581 107.862 0.185953 105.972 0.883804C107.457 0.733963 108.981 1.35565 109.921 2.65067L112.194 5.77806C113.171 7.12378 113.861 8.63677 114.239 10.224ZM114.612 10.1528C114.64 10.3191 114.665 10.4859 114.687 10.6531L118.728 8.85405C120.84 7.9137 123.302 8.79709 124.348 10.8265C124.256 10.4277 124.104 10.0356 123.889 9.66274C122.725 7.64714 120.148 6.95655 118.132 8.12025L114.612 10.1528ZM124.43 11.3148C124.403 11.2441 124.374 11.1736 124.342 11.1036C123.396 8.97741 120.905 8.02119 118.778 8.96784L114.703 10.7823C114.721 10.9326 114.736 11.0832 114.749 11.234C114.794 11.2211 114.84 11.2073 114.885 11.1926L119.294 9.75993C121.32 9.10179 123.479 10.0139 124.454 11.825C124.456 11.6553 124.448 11.4849 124.43 11.3148ZM124.442 12.0789C123.549 10.1913 121.371 9.21597 119.333 9.87839L114.923 11.3111C114.869 11.3288 114.814 11.3454 114.759 11.3606C114.768 11.4908 114.776 11.6212 114.781 11.7516C114.93 11.738 115.08 11.7155 115.228 11.684L119.763 10.72C121.602 10.329 123.418 11.1666 124.354 12.6784C124.398 12.4813 124.427 12.2809 124.442 12.0789ZM124.446 12.833C124.489 12.6616 124.522 12.4875 124.544 12.3118C124.58 12.4008 124.613 12.4915 124.643 12.584C124.667 12.657 124.688 12.7302 124.708 12.8035C124.708 12.9745 124.698 13.1447 124.678 13.3132C124.61 13.1471 124.532 12.9868 124.446 12.833ZM124.312 12.8508C123.423 11.3154 121.618 10.453 119.789 10.8419L115.254 11.8058C115.098 11.8388 114.942 11.8623 114.785 11.8763C114.789 11.9893 114.791 12.1024 114.791 12.2156C115.031 12.2362 115.274 12.2342 115.517 12.2086L120.128 11.724C121.723 11.5564 123.207 12.2755 124.089 13.484C124.18 13.279 124.255 13.0672 124.312 12.8508ZM124.172 13.6021C124.262 13.409 124.337 13.2098 124.398 13.0063C124.491 13.1843 124.572 13.3707 124.64 13.5645C124.604 13.764 124.554 13.9603 124.49 14.152C124.397 13.96 124.291 13.7763 124.172 13.6021ZM124.029 13.6137C123.178 12.406 121.715 11.6825 120.141 11.8479L115.53 12.3325C115.283 12.3585 115.036 12.3609 114.791 12.3406C114.791 12.4393 114.789 12.5381 114.786 12.6368C115.098 12.7183 115.422 12.7606 115.75 12.7606H120.387C121.689 12.7606 122.857 13.3344 123.653 14.2429C123.797 14.0436 123.923 13.8329 124.029 13.6137ZM123.736 14.3406C123.877 14.1474 124.002 13.9437 124.109 13.732C124.231 13.9176 124.338 14.1137 124.43 14.3191C124.35 14.5281 124.254 14.7308 124.142 14.9251C124.023 14.7189 123.886 14.5234 123.736 14.3406ZM124.213 15.0512C124.312 15.2369 124.399 15.4307 124.471 15.6313C124.554 15.4476 124.625 15.2577 124.682 15.0633C124.635 14.8634 124.573 14.6695 124.499 14.4826C124.418 14.6786 124.322 14.8687 124.213 15.0512ZM124.565 14.3153C124.635 14.4774 124.695 14.6449 124.746 14.8173C124.783 14.6516 124.811 14.4831 124.829 14.3127C124.817 14.2378 124.803 14.1628 124.787 14.0878C124.767 13.9926 124.743 13.8989 124.717 13.8068C124.677 13.9794 124.626 14.1492 124.565 14.3153ZM124.769 13.5543C124.798 13.6408 124.825 13.7287 124.85 13.818C124.847 13.6412 124.833 13.4633 124.807 13.2852C124.797 13.3754 124.784 13.4652 124.769 13.5543ZM124.877 14.8021C124.857 14.8911 124.835 14.9793 124.81 15.0666C124.831 15.156 124.849 15.2465 124.864 15.3381C124.879 15.1614 124.884 14.9824 124.877 14.8021ZM124.791 15.8278C124.787 15.7516 124.781 15.6752 124.773 15.5985C124.763 15.5019 124.749 15.4065 124.733 15.3123C124.675 15.4795 124.606 15.6429 124.528 15.8015C124.581 15.9701 124.624 16.1431 124.656 16.3198C124.71 16.1593 124.756 15.995 124.791 15.8278ZM124.694 16.5746C124.705 16.6652 124.713 16.7568 124.718 16.8491C124.752 16.6757 124.775 16.4988 124.787 16.3194C124.759 16.4056 124.728 16.4906 124.694 16.5746ZM124.677 12.3093C124.643 12.223 124.607 12.1384 124.569 12.0554C124.575 11.965 124.578 11.8744 124.579 11.7835C124.623 11.9581 124.656 12.1336 124.677 12.3093ZM105.044 1.21348C104.967 1.26422 104.892 1.31707 104.819 1.37192C104.729 1.38478 104.64 1.40045 104.551 1.41895C104.712 1.33932 104.877 1.27089 105.044 1.21348ZM123.585 20.6952C123.531 20.7684 123.475 20.8399 123.417 20.9095C123.4 20.9992 123.379 21.0889 123.355 21.1785C123.441 21.0238 123.518 20.8625 123.585 20.6952ZM123.09 21.5963C123.117 21.5255 123.143 21.4536 123.166 21.3805C123.196 21.2881 123.223 21.1953 123.246 21.1024C123.125 21.2315 122.996 21.353 122.86 21.4663C122.84 21.6417 122.809 21.8171 122.766 21.9916C122.881 21.867 122.99 21.735 123.09 21.5963ZM122.697 22.2399C122.671 22.3274 122.641 22.4145 122.608 22.5012C122.71 22.3562 122.803 22.2037 122.887 22.0441C122.826 22.1115 122.762 22.1767 122.697 22.2399ZM122.588 22.1727C122.647 21.9759 122.69 21.7774 122.72 21.5785C122.551 21.7075 122.373 21.8243 122.187 21.9277C122.181 22.1384 122.159 22.3494 122.121 22.5592C122.285 22.4419 122.441 22.3127 122.588 22.1727ZM121.974 22.6593C122.021 22.4392 122.049 22.2174 122.06 21.9958C121.849 22.1041 121.628 22.1955 121.4 22.2684C121.414 22.505 121.41 22.7432 121.385 22.9803C121.59 22.889 121.787 22.7815 121.974 22.6593ZM121.254 23.0364C121.283 22.7931 121.29 22.5486 121.277 22.3056C121.023 22.3785 120.76 22.4286 120.491 22.4537C120.536 22.7174 120.557 22.9847 120.553 23.252C120.793 23.2004 121.028 23.128 121.254 23.0364ZM120.428 23.2768C120.433 23.0046 120.413 22.7321 120.366 22.4635C120.124 22.4791 119.878 22.4745 119.629 22.4484L119.428 22.4272C119.524 22.727 119.586 23.0347 119.616 23.3446C119.891 23.3486 120.163 23.3253 120.428 23.2768ZM119.49 23.3409C119.459 23.0271 119.393 22.7156 119.292 22.413L118.215 22.2997C118.359 22.5902 118.467 22.8915 118.541 23.1981L118.795 23.2521C119.028 23.3015 119.26 23.3308 119.49 23.3409ZM118.406 23.1693C118.328 22.8667 118.215 22.5697 118.067 22.2842L116.922 22.1638L117.065 22.4123C117.165 22.5844 117.251 22.7605 117.324 22.9394L118.406 23.1693ZM120.007 25.554C119.928 25.5991 119.848 25.6416 119.767 25.6815C119.714 25.7563 119.659 25.8298 119.601 25.902C119.743 25.7957 119.878 25.6797 120.007 25.554Z" fill="#B4B4C2"/>
<path d="M3.57937 21.7837H0V37.9345H9.90873V34.7698H3.57937V21.7837Z" fill="#B4B4C2"/>
<path d="M10.2506 32.4564C10.2506 35.9049 12.5641 38.1965 16.0562 38.1965C19.5264 38.1965 21.8399 35.9049 21.8399 32.4564C21.8399 29.008 19.5264 26.6945 16.0562 26.6945C12.5641 26.6945 10.2506 29.008 10.2506 32.4564ZM13.6335 32.4346C13.6335 30.7977 14.5939 29.7064 16.0562 29.7064C17.4966 29.7064 18.457 30.7977 18.457 32.4346C18.457 34.0934 17.4966 35.1846 16.0562 35.1846C14.5939 35.1846 13.6335 34.0934 13.6335 32.4346Z" fill="#B4B4C2"/>
<path d="M22.3806 32.2817C22.3806 35.5774 24.5195 37.8036 27.5532 37.8036C29.0155 37.8036 30.2814 37.2798 30.9143 36.4286V37.9345C30.9143 39.4405 29.9758 40.4444 28.3171 40.4444C26.833 40.4444 25.8072 39.746 25.7417 38.502H22.3369C22.6425 41.4921 24.956 43.5 28.1207 43.5C31.8528 43.5 34.2099 41.0774 34.2099 37.2361V27.0218H31.1762L31.0016 28.1349C30.3905 27.2401 29.1028 26.6508 27.6187 26.6508C24.5631 26.6508 22.3806 28.9425 22.3806 32.2817ZM25.7853 32.1944C25.7853 30.623 26.833 29.5754 28.1643 29.5754C29.7139 29.5754 30.8488 30.6012 30.8488 32.1944C30.8488 33.7877 29.7357 34.879 28.1861 34.879C26.8548 34.879 25.7853 33.7877 25.7853 32.1944Z" fill="#B4B4C2"/>
<path d="M35.1895 32.4564C35.1895 35.9049 37.503 38.1965 40.9951 38.1965C44.4653 38.1965 46.7788 35.9049 46.7788 32.4564C46.7788 29.008 44.4653 26.6945 40.9951 26.6945C37.503 26.6945 35.1895 29.008 35.1895 32.4564ZM38.5725 32.4346C38.5725 30.7977 39.5328 29.7064 40.9951 29.7064C42.4356 29.7064 43.3959 30.7977 43.3959 32.4346C43.3959 34.0934 42.4356 35.1846 40.9951 35.1846C39.5328 35.1846 38.5725 34.0934 38.5725 32.4346Z" fill="#B4B4C2"/>
<path d="M49.6766 25.3194C50.7243 25.3194 51.5755 24.4683 51.5755 23.3988C51.5755 22.3294 50.7243 21.5 49.6766 21.5C48.6072 21.5 47.756 22.3294 47.756 23.3988C47.756 24.4683 48.6072 25.3194 49.6766 25.3194ZM47.9743 37.9345H51.3572V27.0218H47.9743V37.9345Z" fill="#B4B4C2"/>
<path d="M53.3264 43.1726H56.6439V36.8433C57.2768 37.6726 58.7173 38.2401 60.2233 38.2401C63.4752 38.2401 65.4395 35.752 65.3522 32.3036C65.2649 28.7897 63.2352 26.6726 60.2014 26.6726C58.6518 26.6726 57.1895 27.3492 56.5784 28.3532L56.4038 27.0218H53.3264V43.1726ZM56.7094 32.4782C56.7094 30.8413 57.8006 29.75 59.3721 29.75C60.9653 29.75 61.9693 30.8631 61.9693 32.4782C61.9693 34.0933 60.9653 35.2064 59.3721 35.2064C57.8006 35.2064 56.7094 34.1151 56.7094 32.4782Z" fill="#B4B4C2"/>
<path d="M65.7104 34.4861C65.7977 36.6905 67.5437 38.2183 70.2937 38.2183C72.9346 38.2183 74.7679 36.8214 74.7679 34.5734C74.7679 32.9583 73.8076 31.8889 72.0179 31.4524L70.0755 30.9722C69.377 30.7976 68.9405 30.623 68.9405 30.0556C68.9405 29.4881 69.3989 29.1171 70.0755 29.1171C70.8393 29.1171 71.3413 29.619 71.3195 30.3611H74.3532C74.2659 28.0913 72.5417 26.6726 70.1409 26.6726C67.7183 26.6726 65.9068 28.1131 65.9068 30.2956C65.9068 31.7579 66.7143 32.9583 68.8751 33.5258L70.7957 34.0278C71.3631 34.1806 71.6032 34.4425 71.6032 34.8135C71.6032 35.3591 71.1012 35.7083 70.2501 35.7083C69.2679 35.7083 68.7441 35.25 68.7441 34.4861H65.7104Z" fill="#B4B4C2"/>
<path d="M79.9128 38.2184C81.2442 38.2184 82.5755 37.6072 83.2521 36.7124L83.4704 37.9346H86.6351V27.0219H83.2739V32.6965C83.2739 34.3334 82.7938 35.2283 81.2442 35.2283C80.0438 35.2283 79.2581 34.6826 79.2581 32.6529V27.0219H75.897V33.8751C75.897 36.4723 77.3374 38.2184 79.9128 38.2184Z" fill="#B4B4C2"/>
<path d="M91.9652 37.9345V31.9762C91.9652 30.1429 92.9473 29.619 93.9076 29.619C94.9771 29.619 95.6755 30.2738 95.6755 31.627V37.9345H98.9929V31.9762C98.9929 30.121 99.9533 29.5972 100.913 29.5972C101.983 29.5972 102.703 30.252 102.703 31.627V37.9345H105.977V30.7976C105.977 28.3095 104.667 26.6508 101.852 26.6508C100.281 26.6508 98.9929 27.4147 98.4255 28.5933C97.7707 27.4147 96.6358 26.6508 94.8243 26.6508C93.6239 26.6508 92.5108 27.1964 91.856 28.0694L91.7251 27.0218H88.5822V37.9345H91.9652Z" fill="#B4B4C2"/>
</g>
<defs>
<clipPath id="clip0_1_197">
<rect width="126" height="44" fill="white" transform="translate(0 0.5)"/>
</clipPath>
</defs>
</svg>
