<svg width="138" height="31" viewBox="0 0 138 31" fill="none" xmlns="http://www.w3.org/2000/svg">
<path d="M40.4227 20.5219C40.4227 21.1768 40.2862 21.68 40.0131 22.0315C39.7471 22.3831 39.3026 22.5589 38.6795 22.5589C38.0914 22.5589 37.6749 22.3831 37.4298 22.0315C37.1918 21.68 37.0728 21.1768 37.0728 20.5219V9.59243C37.0728 8.93755 37.1918 8.43433 37.4298 8.08277C37.6749 7.7312 38.0914 7.55542 38.6795 7.55542C39.3026 7.55542 39.7471 7.7312 40.0131 8.08277C40.2862 8.43433 40.4227 8.93755 40.4227 9.59243V20.5219Z" fill="#B4B4C2" fill-opacity="0.705882"/>
<path d="M41.4396 17.3474C41.4396 16.6166 41.5586 15.9274 41.7967 15.2794C42.0417 14.6245 42.4057 14.0524 42.8888 13.5629C43.3789 13.0735 43.988 12.684 44.7161 12.3945C45.4511 12.1049 46.3122 11.9602 47.2993 11.9602C48.2445 11.9602 49.0811 12.0946 49.8092 12.3634C50.5372 12.6323 51.1498 13.008 51.6468 13.4906C52.1439 13.9661 52.5219 14.5348 52.781 15.1966C53.04 15.8515 53.1695 16.5684 53.1695 17.3474C53.1695 18.0712 53.047 18.7571 52.802 19.4051C52.557 20.0461 52.1894 20.6114 51.6993 21.1009C51.2093 21.5833 50.5967 21.9694 49.8617 22.2589C49.1265 22.5416 48.2724 22.6828 47.2993 22.6828C46.3402 22.6828 45.4932 22.5484 44.758 22.2796C44.0299 22.0039 43.4174 21.6281 42.9204 21.1525C42.4303 20.67 42.0592 20.1048 41.8072 19.4568C41.5621 18.8019 41.4396 18.0987 41.4396 17.3474ZM44.9366 17.3474C44.9366 17.8024 44.9785 18.2366 45.0626 18.6502C45.1465 19.0569 45.2796 19.4154 45.4616 19.7256C45.6506 20.0358 45.8957 20.284 46.1967 20.4701C46.4978 20.6493 46.8653 20.7389 47.2993 20.7389C47.6984 20.7389 48.0449 20.6562 48.3389 20.4907C48.64 20.3254 48.885 20.0944 49.0741 19.798C49.2701 19.5016 49.4171 19.1465 49.5151 18.733C49.6131 18.3124 49.6621 17.8506 49.6621 17.3474C49.6621 16.8924 49.6166 16.4615 49.5256 16.0549C49.4416 15.6413 49.3051 15.2794 49.116 14.9691C48.927 14.6521 48.682 14.4039 48.3809 14.2247C48.0869 14.0386 47.7263 13.9455 47.2993 13.9455C46.8723 13.9455 46.5083 14.0351 46.2072 14.2144C45.9062 14.3936 45.6612 14.6382 45.4721 14.9485C45.2831 15.2587 45.1465 15.6206 45.0626 16.0342C44.9785 16.4478 44.9366 16.8855 44.9366 17.3474Z" fill="#B4B4C2" fill-opacity="0.705882"/>
<path d="M61.7893 20.5633C61.6002 20.9079 61.3692 21.2008 61.0962 21.4422C60.8302 21.6834 60.5326 21.8833 60.2036 22.0419C59.8816 22.1935 59.5351 22.3072 59.164 22.3831C58.7999 22.452 58.4254 22.4865 58.0404 22.4865C57.3962 22.4865 56.8082 22.3728 56.2761 22.1452C55.7441 21.9178 55.2856 21.5903 54.9005 21.163C54.5224 20.7287 54.2284 20.1979 54.0184 19.5706C53.8083 18.9433 53.7033 18.2263 53.7033 17.4199C53.7033 16.6616 53.8013 15.9515 53.9974 15.2898C54.1934 14.628 54.4769 14.0525 54.848 13.563C55.2261 13.0736 55.6881 12.6875 56.2342 12.4049C56.7802 12.1223 57.4033 11.981 58.1034 11.981C58.9014 11.981 59.6085 12.1326 60.2246 12.4359C60.8477 12.7393 61.3833 13.2356 61.8313 13.9249V13.6561C61.8313 13.1598 61.9678 12.7875 62.2408 12.5393C62.5209 12.2843 62.9059 12.1567 63.396 12.1567C63.69 12.1567 63.9385 12.205 64.1416 12.3015C64.3445 12.3912 64.5056 12.529 64.6246 12.7152C64.7437 12.8944 64.8276 13.1184 64.8766 13.3873C64.9327 13.6491 64.9606 13.949 64.9606 14.2868V21.2147C64.9606 22.0557 64.8522 22.807 64.6351 23.4688C64.4251 24.1305 64.0961 24.689 63.648 25.1439C63.1999 25.5988 62.6259 25.9435 61.9258 26.1779C61.2257 26.4192 60.3926 26.5398 59.4265 26.5398C58.7475 26.5398 58.1454 26.5088 57.6203 26.4467C57.1022 26.3916 56.6542 26.3054 56.2761 26.1883C55.8981 26.0572 55.6111 25.9125 55.415 25.754C55.2261 25.5954 55.1315 25.3886 55.1315 25.1336C55.1315 24.9888 55.1525 24.851 55.1945 24.7199C55.2365 24.589 55.2995 24.4718 55.3835 24.3684C55.4745 24.2719 55.5901 24.1926 55.7301 24.1305C55.8771 24.0755 56.0556 24.0478 56.2656 24.0478C56.4897 24.0478 56.7137 24.0616 56.9377 24.0892C57.1687 24.1168 57.4068 24.1444 57.6518 24.1719C57.9038 24.2064 58.1664 24.2374 58.4394 24.265C58.7194 24.2925 59.0204 24.3064 59.3425 24.3064C59.7275 24.3064 60.0706 24.2684 60.3717 24.1926C60.6727 24.1168 60.9281 23.9824 61.1382 23.7893C61.3482 23.5963 61.5093 23.3378 61.6213 23.0138C61.7333 22.6967 61.7893 22.29 61.7893 21.7937V20.5633ZM61.7893 17.3475C61.7893 16.8442 61.7508 16.3858 61.6738 15.9723C61.6038 15.5586 61.4812 15.2071 61.3062 14.9175C61.1312 14.6211 60.8967 14.3937 60.6027 14.2351C60.3086 14.0697 59.9411 13.987 59.5 13.987C59.066 13.987 58.7054 14.0731 58.4184 14.2454C58.1384 14.4178 57.9144 14.6556 57.7463 14.9589C57.5783 15.2623 57.4593 15.6172 57.3893 16.024C57.3263 16.4307 57.2948 16.865 57.2948 17.3268C57.2948 18.3815 57.4838 19.1743 57.8619 19.705C58.2398 20.2358 58.7894 20.5012 59.5105 20.5012C59.8466 20.4943 60.1511 20.4322 60.4241 20.315C60.7041 20.191 60.9457 20.0015 61.1487 19.7464C61.3517 19.4913 61.5093 19.1673 61.6213 18.7744C61.7333 18.3815 61.7893 17.9059 61.7893 17.3475Z" fill="#B4B4C2" fill-opacity="0.705882"/>
<path d="M65.9251 17.3474C65.9251 16.6166 66.0441 15.9274 66.2821 15.2794C66.5272 14.6245 66.8912 14.0524 67.3743 13.5629C67.8644 13.0735 68.4734 12.684 69.2014 12.3945C69.9366 12.1049 70.7977 11.9602 71.7848 11.9602C72.7298 11.9602 73.5665 12.0946 74.2945 12.3634C75.0226 12.6323 75.6352 13.008 76.1323 13.4906C76.6293 13.9661 77.0074 14.5348 77.2664 15.1966C77.5254 15.8515 77.6549 16.5684 77.6549 17.3474C77.6549 18.0712 77.5324 18.7571 77.2874 19.4051C77.0423 20.0461 76.6749 20.6114 76.1848 21.1009C75.6947 21.5833 75.0821 21.9694 74.3471 22.2589C73.612 22.5416 72.7579 22.6828 71.7848 22.6828C70.8256 22.6828 69.9785 22.5484 69.2435 22.2796C68.5154 22.0039 67.9028 21.6281 67.4057 21.1525C66.9158 20.67 66.5447 20.1048 66.2926 19.4568C66.0476 18.8019 65.9251 18.0987 65.9251 17.3474ZM69.422 17.3474C69.422 17.8024 69.464 18.2366 69.5481 18.6502C69.632 19.0569 69.765 19.4154 69.9471 19.7256C70.1361 20.0358 70.3811 20.284 70.6822 20.4701C70.9832 20.6493 71.3507 20.7389 71.7848 20.7389C72.1839 20.7389 72.5304 20.6562 72.8244 20.4907C73.1254 20.3254 73.3705 20.0944 73.5595 19.798C73.7555 19.5016 73.9025 19.1465 74.0005 18.733C74.0986 18.3124 74.1476 17.8506 74.1476 17.3474C74.1476 16.8924 74.1021 16.4615 74.011 16.0549C73.927 15.6413 73.7905 15.2794 73.6015 14.9691C73.4125 14.6521 73.1674 14.4039 72.8664 14.2247C72.5724 14.0386 72.2118 13.9455 71.7848 13.9455C71.3577 13.9455 70.9937 14.0351 70.6926 14.2144C70.3916 14.3936 70.1466 14.6382 69.9576 14.9485C69.7686 15.2587 69.632 15.6206 69.5481 16.0342C69.464 16.4478 69.422 16.8855 69.422 17.3474Z" fill="#B4B4C2" fill-opacity="0.705882"/>
<path d="M82.1583 8.47566C82.1583 8.70314 82.1058 8.90649 82.0008 9.08572C81.8958 9.25806 81.7593 9.40278 81.5913 9.52004C81.4232 9.63722 81.2272 9.72678 81.0031 9.78881C80.7862 9.84396 80.5622 9.87157 80.3311 9.87157C80.0861 9.87157 79.8516 9.84051 79.6275 9.77849C79.4105 9.71646 79.218 9.6269 79.05 9.50963C78.882 9.38557 78.7489 9.23737 78.6509 9.06504C78.5529 8.89271 78.5039 8.69624 78.5039 8.47566C78.5039 8.27575 78.5494 8.09308 78.6404 7.92763C78.7384 7.7553 78.8679 7.60709 79.0289 7.48301C79.19 7.35893 79.3825 7.26242 79.6066 7.19349C79.8306 7.12455 80.0756 7.09009 80.3416 7.09009C80.5727 7.09009 80.7967 7.12111 81.0137 7.18315C81.2377 7.24519 81.4337 7.3348 81.6017 7.45199C81.7698 7.56918 81.9028 7.71394 82.0008 7.88627C82.1058 8.05861 82.1583 8.25507 82.1583 8.47566ZM82.0008 20.5218C82.0008 21.1767 81.8643 21.6799 81.5913 22.0315C81.3252 22.3831 80.8806 22.5588 80.2576 22.5588C79.6696 22.5588 79.253 22.3831 79.008 22.0315C78.77 21.6799 78.6509 21.1767 78.6509 20.5218V14.1937C78.6509 13.5388 78.77 13.0356 79.008 12.6841C79.253 12.3325 79.6696 12.1567 80.2576 12.1567C80.8806 12.1567 81.3252 12.3325 81.5913 12.6841C81.8643 13.0356 82.0008 13.5388 82.0008 14.1937V20.5218Z" fill="#B4B4C2" fill-opacity="0.705882"/>
<path d="M86.8297 17.3268C86.8297 17.7887 86.8646 18.2195 86.9347 18.6193C87.0117 19.0191 87.1377 19.3707 87.3127 19.674C87.4948 19.9704 87.7328 20.2048 88.0268 20.3771C88.3278 20.5495 88.6989 20.6356 89.1399 20.6356C89.546 20.6356 89.8855 20.5529 90.1588 20.3875C90.4384 20.2152 90.6624 19.9807 90.8309 19.6843C90.9985 19.381 91.1176 19.026 91.1875 18.6193C91.2646 18.2126 91.3031 17.7714 91.3031 17.2958C91.3031 16.9167 91.2754 16.5306 91.2189 16.1377C91.1633 15.7378 91.0585 15.376 90.9044 15.052C90.7502 14.728 90.537 14.4626 90.2636 14.2558C89.9903 14.049 89.6337 13.9456 89.1924 13.9456C88.7514 13.9456 88.3768 14.0145 88.0688 14.1524C87.7677 14.2903 87.5227 14.5005 87.3337 14.7831C87.1517 15.0658 87.0222 15.4208 86.9452 15.8481C86.8681 16.2687 86.8297 16.7615 86.8297 17.3268ZM86.8192 14.1937C86.9942 13.8284 87.2182 13.5079 87.4913 13.2321C87.7642 12.9564 88.0653 12.7255 88.3944 12.5393C88.7234 12.3532 89.0665 12.2153 89.4235 12.1258C89.7878 12.0292 90.1481 11.981 90.5047 11.981C91.149 11.981 91.7306 12.1223 92.2485 12.4049C92.7665 12.6875 93.2074 13.0736 93.5712 13.563C93.9422 14.0456 94.2262 14.6177 94.4225 15.2795C94.6178 15.9343 94.7164 16.6375 94.7164 17.3888C94.7164 18.1678 94.6107 18.8812 94.401 19.5292C94.1984 20.1772 93.9072 20.7356 93.5291 21.2043C93.1581 21.6662 92.71 22.028 92.1849 22.29C91.667 22.552 91.0899 22.6829 90.4527 22.6829C89.6686 22.6829 88.9684 22.5037 88.3524 22.1452C87.7363 21.7868 87.2252 21.2836 86.8192 20.6356V24.3581C86.8192 25.0129 86.6826 25.5162 86.4096 25.8677C86.1435 26.2192 85.6991 26.3951 85.0759 26.3951C84.4879 26.3951 84.0713 26.2192 83.8263 25.8677C83.5883 25.5162 83.4693 25.0129 83.4693 24.3581V14.1937C83.4693 13.5388 83.5883 13.0356 83.8263 12.6841C84.0713 12.3326 84.4879 12.1567 85.0759 12.1567C85.6991 12.1567 86.1435 12.3326 86.4096 12.6841C86.6826 13.0356 86.8192 13.5388 86.8192 14.1937Z" fill="#B4B4C2" fill-opacity="0.705882"/>
<path d="M98.411 14.9278C98.411 15.1966 98.5302 15.4069 98.7677 15.5585C99.006 15.7033 99.3349 15.8239 99.7552 15.9205C100.154 16.01 100.563 16.0962 100.984 16.1789C101.404 16.2617 101.814 16.3582 102.212 16.4685C102.611 16.5718 102.986 16.696 103.336 16.8407C103.685 16.9855 103.994 17.1681 104.26 17.3887C104.526 17.6024 104.736 17.8644 104.89 18.1745C105.044 18.4779 105.121 18.8433 105.121 19.2706C105.121 19.8083 105.009 20.2874 104.785 20.7079C104.561 21.1215 104.243 21.473 103.83 21.7626C103.424 22.0521 102.937 22.2761 102.37 22.4347C101.803 22.5933 101.176 22.6759 100.49 22.6828C99.8394 22.6828 99.2121 22.6415 98.61 22.5588C98.0087 22.483 97.4728 22.3623 97.0032 22.1968C96.5418 22.0314 96.1708 21.8281 95.8903 21.5868C95.6107 21.3386 95.4709 21.0491 95.4709 20.7183C95.4709 20.4287 95.565 20.2046 95.7541 20.0461C95.9432 19.8876 96.1842 19.8083 96.479 19.8083C96.591 19.8083 96.7237 19.8289 96.8778 19.8703C97.0319 19.9117 97.1995 19.9634 97.3814 20.0254C97.5633 20.0875 97.756 20.1564 97.9594 20.2323C98.1691 20.3012 98.3859 20.3632 98.61 20.4184C98.8904 20.4942 99.1772 20.5563 99.4711 20.6045C99.7722 20.6458 100.08 20.6666 100.396 20.6666C100.591 20.6666 100.784 20.6493 100.973 20.6149C101.162 20.5735 101.331 20.5149 101.477 20.4391C101.632 20.3563 101.757 20.2529 101.856 20.1289C101.953 20.0048 102.012 19.8531 102.034 19.6739C102.055 19.6325 102.073 19.5911 102.086 19.5498C102.1 19.5085 102.107 19.4602 102.107 19.4051C102.107 19.212 102.016 19.0397 101.834 18.888C101.659 18.7364 101.41 18.6157 101.089 18.5261C100.549 18.4021 100.035 18.2884 99.5446 18.1849C99.0553 18.0815 98.6001 17.9712 98.1798 17.8541C97.7667 17.7369 97.3886 17.6024 97.0454 17.4507C96.7093 17.2991 96.4226 17.113 96.1842 16.8924C95.9539 16.6718 95.7711 16.4064 95.6385 16.0962C95.5121 15.786 95.4494 15.4103 95.4494 14.9691C95.4494 14.4935 95.5578 14.0696 95.7747 13.6973C95.9987 13.3181 96.3177 13.0011 96.7308 12.746C97.1439 12.4909 97.644 12.298 98.2327 12.167C98.8205 12.0291 99.4855 11.9602 100.227 11.9602C101.557 11.9602 102.569 12.1188 103.263 12.4358C103.962 12.746 104.313 13.1527 104.313 13.656C104.313 13.9386 104.218 14.1558 104.029 14.3074C103.84 14.4521 103.612 14.5245 103.347 14.5245C103.206 14.5245 103.059 14.5004 102.905 14.4521C102.758 14.397 102.58 14.3384 102.37 14.2764C102.159 14.2075 101.908 14.1489 101.614 14.1006C101.327 14.0455 100.969 14.0179 100.543 14.0179C100.22 14.0179 99.9263 14.0316 99.6602 14.0592C99.4012 14.0868 99.1772 14.135 98.9881 14.2039C98.8062 14.2729 98.6628 14.3659 98.558 14.4832C98.4594 14.6004 98.411 14.7485 98.411 14.9278Z" fill="#B4B4C2" fill-opacity="0.705882"/>
<path d="M109.383 18.7227C109.383 19.0467 109.425 19.3293 109.509 19.5706C109.6 19.8119 109.723 20.0152 109.877 20.1807C110.031 20.3392 110.209 20.4599 110.412 20.5425C110.622 20.6184 110.846 20.6564 111.084 20.6564C111.364 20.6564 111.634 20.615 111.893 20.5322C112.152 20.4495 112.379 20.3219 112.576 20.1496C112.778 19.9773 112.94 19.7601 113.059 19.4982C113.177 19.2363 113.237 18.9295 113.237 18.578V14.1937C113.237 13.5389 113.356 13.0357 113.594 12.6841C113.839 12.3326 114.256 12.1567 114.844 12.1567C115.467 12.1567 115.911 12.3326 116.177 12.6841C116.45 13.0357 116.587 13.5389 116.587 14.1937V20.5219C116.587 21.1768 116.45 21.68 116.177 22.0315C115.911 22.3831 115.467 22.5589 114.844 22.5589C114.256 22.5589 113.839 22.3831 113.594 22.0315C113.356 21.68 113.237 21.1768 113.237 20.5219C113.09 20.839 112.897 21.1285 112.659 21.3905C112.428 21.6524 112.155 21.8799 111.84 22.0729C111.532 22.2591 111.189 22.4038 110.811 22.5072C110.44 22.6106 110.037 22.6623 109.603 22.6623C109.135 22.6623 108.683 22.583 108.248 22.4245C107.822 22.2591 107.444 22.0177 107.115 21.7006C106.786 21.3767 106.523 20.9768 106.327 20.5012C106.131 20.0256 106.033 19.4706 106.033 18.8364V14.1937C106.033 13.5389 106.152 13.0357 106.39 12.6841C106.635 12.3326 107.051 12.1567 107.64 12.1567C108.263 12.1567 108.707 12.3326 108.973 12.6841C109.247 13.0357 109.383 13.5389 109.383 14.1937V18.7227Z" fill="#B4B4C2" fill-opacity="0.705882"/>
<path d="M118.107 14.1937C118.107 13.5388 118.227 13.0356 118.465 12.6841C118.71 12.3326 119.126 12.1567 119.714 12.1567C120.338 12.1567 120.782 12.3326 121.048 12.6841C121.321 13.0356 121.458 13.5388 121.458 14.1937C121.598 13.8628 121.787 13.563 122.025 13.2942C122.27 13.0184 122.547 12.7841 122.854 12.591C123.169 12.398 123.509 12.2498 123.873 12.1464C124.237 12.0361 124.615 11.981 125.007 11.981C125.371 11.981 125.728 12.0292 126.078 12.1258C126.435 12.2153 126.765 12.3635 127.066 12.5704C127.373 12.7702 127.643 13.0253 127.874 13.3355C128.105 13.6457 128.284 14.018 128.41 14.4523C128.627 13.9904 128.882 13.601 129.176 13.2838C129.47 12.9667 129.789 12.7116 130.131 12.5187C130.474 12.3256 130.832 12.1878 131.203 12.105C131.581 12.0223 131.958 11.981 132.337 11.981C132.785 11.981 133.212 12.0603 133.618 12.2188C134.031 12.3773 134.391 12.6186 134.7 12.9426C135.015 13.2597 135.263 13.663 135.445 14.1524C135.634 14.6349 135.728 15.2002 135.728 15.8481V20.5219C135.728 21.1768 135.592 21.68 135.319 22.0315C135.054 22.3831 134.608 22.5589 133.985 22.5589C133.398 22.5589 132.981 22.3831 132.736 22.0315C132.498 21.68 132.379 21.1768 132.379 20.5219V15.9929C132.379 15.6827 132.337 15.407 132.253 15.1657C132.169 14.9175 132.05 14.7108 131.896 14.5453C131.749 14.373 131.574 14.2454 131.371 14.1628C131.168 14.0731 130.95 14.0283 130.72 14.0283C130.432 14.0283 130.16 14.0731 129.901 14.1628C129.642 14.2523 129.414 14.3902 129.218 14.5763C129.029 14.7625 128.875 15.0003 128.756 15.2898C128.644 15.5793 128.588 15.9275 128.588 16.3341V20.5219C128.588 21.1768 128.451 21.68 128.179 22.0315C127.913 22.3831 127.468 22.5589 126.844 22.5589C126.257 22.5589 125.84 22.3831 125.595 22.0315C125.357 21.68 125.238 21.1768 125.238 20.5219V16.1893C125.238 15.4794 125.087 14.9417 124.787 14.5763C124.492 14.211 124.09 14.0283 123.579 14.0283C123.278 14.0283 122.997 14.0765 122.738 14.1731C122.479 14.2696 122.255 14.4109 122.066 14.597C121.877 14.7831 121.727 15.014 121.615 15.2898C121.51 15.5655 121.458 15.8826 121.458 16.241V20.5219C121.458 21.1768 121.321 21.68 121.048 22.0315C120.782 22.3831 120.338 22.5589 119.714 22.5589C119.126 22.5589 118.71 22.3831 118.465 22.0315C118.227 21.68 118.107 21.1768 118.107 20.5219V14.1937Z" fill="#B4B4C2" fill-opacity="0.705882"/>
<path d="M15.2337 20.7942C12.2643 20.7942 9.85712 18.4239 9.85712 15.5001C9.85712 12.5762 12.2643 10.2059 15.2337 10.2059C18.2032 10.2059 20.6104 12.5762 20.6104 15.5001C20.6104 18.4239 18.2032 20.7942 15.2337 20.7942Z" fill="#B4B4C2"/>
<path d="M4.81766 17.3084C3.25956 17.579 2.19157 19.061 2.78967 20.5033C3.6247 22.5168 4.95687 24.3108 6.68394 25.7127C9.15352 27.7171 12.2684 28.7882 15.4684 28.7332C18.6684 28.6783 21.7434 27.5008 24.1405 25.4126C25.8168 23.9523 27.0846 22.1136 27.8478 20.0726C28.3944 18.6106 27.2744 17.1662 25.7077 16.9494C24.141 16.7326 22.7343 17.8555 21.9605 19.2143C21.541 19.9508 20.9964 20.619 20.3441 21.1874C18.9687 22.3855 17.2044 23.061 15.3684 23.0926C13.5324 23.1241 11.7452 22.5096 10.3283 21.3595C9.65615 20.8139 9.08828 20.1649 8.64294 19.4432C7.8214 18.1118 6.37576 17.0379 4.81766 17.3084Z" fill="#B4B4C2"/>
<path d="M28.5714 17.1539C28.64 16.6121 28.6754 16.0601 28.6754 15.4999C28.6754 8.19029 22.6574 2.26465 15.2338 2.26465C7.81023 2.26465 1.79224 8.19029 1.79224 15.4999C1.79224 16.2188 1.85044 16.9242 1.96246 17.612C2.57986 16.7798 3.54346 16.1857 4.58428 16.005C5.71041 15.8095 6.73387 16.0784 7.59923 16.5811C7.54811 16.228 7.52166 15.867 7.52166 15.4999C7.52166 11.306 10.9745 7.90615 15.2338 7.90615C19.4931 7.90615 22.9459 11.306 22.9459 15.4999C22.9459 15.7765 22.9309 16.0496 22.9017 16.3184C23.7488 15.7861 24.7622 15.4819 25.8948 15.6387C26.9411 15.7835 27.9249 16.3438 28.5714 17.1539Z" fill="#B4B4C2"/>
</svg>
