<svg width="153" height="27" viewBox="0 0 153 27" fill="none" xmlns="http://www.w3.org/2000/svg">
<g clip-path="url(#clip0_1_185)">
<path d="M85.873 19.9286H89.1457V8.0563H85.873V19.9286ZM85.873 6.2049H89.1457V3.38147H85.873V6.2049Z" fill="#B4B4C2"/>
<path d="M91.2546 23.8166H94.5273V18.5863H94.575C95.2726 19.6046 96.404 20.2758 98.1361 20.2758C101.313 20.2758 103.479 17.8458 103.479 14.0041C103.479 10.3011 101.385 7.7323 98.1123 7.7323C96.4279 7.7323 95.2726 8.49606 94.4789 9.53745H94.4066V8.0563H91.2546V23.8166ZM97.4385 17.6606C95.4895 17.6606 94.455 16.2489 94.455 14.0966C94.455 11.9675 95.2726 10.2781 97.3185 10.2781C99.3398 10.2781 100.157 11.8518 100.157 14.0966C100.157 16.3415 99.0991 17.6606 97.4385 17.6606Z" fill="#B4B4C2"/>
<path d="M110.006 20.2758C113.087 20.2758 115.204 18.8409 115.204 16.4571C115.204 13.6801 112.918 13.1246 110.848 12.7081C109.092 12.3609 107.456 12.2683 107.456 11.2501C107.456 10.3938 108.298 9.93091 109.573 9.93091C110.969 9.93091 111.811 10.3938 111.955 11.6666H114.915C114.675 9.28291 112.87 7.7323 109.622 7.7323C106.806 7.7323 104.592 8.95891 104.592 11.5278C104.592 14.1198 106.758 14.6983 108.972 15.1149C110.656 15.4389 112.22 15.5546 112.22 16.6886C112.22 17.5218 111.402 18.0541 109.959 18.0541C108.49 18.0541 107.48 17.4523 107.263 16.0869H104.232C104.424 18.6095 106.421 20.2758 110.006 20.2758Z" fill="#B4B4C2"/>
<path d="M127.629 19.9286V8.05627H124.356V14.9066C124.356 16.4803 123.418 17.5911 121.878 17.5911C120.482 17.5911 119.833 16.8274 119.833 15.4389V8.05627H116.584V15.9711C116.584 18.5631 118.124 20.2526 120.867 20.2526C122.6 20.2526 123.562 19.6277 124.404 18.54H124.477V19.9286H127.629Z" fill="#B4B4C2"/>
<path d="M129.745 19.9286H133.018V13.0321C133.018 11.4583 133.909 10.4401 135.232 10.4401C136.435 10.4401 137.133 11.1343 137.133 12.4766V19.9286H140.406V13.0321C140.406 11.4583 141.248 10.4401 142.619 10.4401C143.823 10.4401 144.52 11.1343 144.52 12.4766V19.9286H147.793V11.9443C147.793 9.3523 146.325 7.7323 143.726 7.7323C142.162 7.7323 140.862 8.51915 140.02 9.81515H139.973C139.371 8.56545 138.12 7.7323 136.555 7.7323C134.847 7.7323 133.644 8.56545 132.97 9.65315H132.898V8.0563H129.745V19.9286Z" fill="#B4B4C2"/>
<path d="M0.578369 19.9286H3.85092V3.38147H0.578369V19.9286Z" fill="#B4B4C2"/>
<path d="M11.8528 20.2758C15.6788 20.2758 18.3016 17.5449 18.3016 14.0041C18.3016 10.4631 15.6788 7.7323 11.8528 7.7323C8.02677 7.7323 5.40393 10.4631 5.40393 14.0041C5.40393 17.5449 8.02677 20.2758 11.8528 20.2758ZM11.8528 17.8689C9.83154 17.8689 8.72461 16.3183 8.72461 14.0041C8.72461 11.6898 9.83154 10.1161 11.8528 10.1161C13.85 10.1161 14.981 11.6898 14.981 14.0041C14.981 16.3183 13.85 17.8689 11.8528 17.8689Z" fill="#B4B4C2"/>
<path d="M25.2611 23.9786C27.0899 23.9786 28.678 23.5621 29.7127 22.6363C30.6271 21.8263 31.1806 20.6923 31.1806 19.0261V8.0563H28.0284V9.30606H27.9802C27.2342 8.31091 26.1033 7.7323 24.5633 7.7323C21.4351 7.7323 19.2213 10.0003 19.2213 13.5411C19.2213 17.1283 21.9164 19.2111 24.6595 19.2111C26.2236 19.2111 27.1621 18.6095 27.8839 17.8226H27.9561V19.1186C27.9561 20.7386 27.0658 21.5949 25.2129 21.5949C23.697 21.5949 22.9992 21.0163 22.7345 20.2758H19.486C19.8229 22.5901 21.8923 23.9786 25.2611 23.9786ZM25.2129 16.6886C23.5285 16.6886 22.4217 15.5083 22.4217 13.4949C22.4217 11.5046 23.5285 10.2549 25.1889 10.2549C27.1621 10.2549 28.1246 11.7361 28.1246 13.4718C28.1246 15.2306 27.2824 16.6886 25.2129 16.6886Z" fill="#B4B4C2"/>
<path d="M39.135 20.2758C42.961 20.2758 45.5839 17.5449 45.5839 14.0041C45.5839 10.4631 42.961 7.7323 39.135 7.7323C35.3091 7.7323 32.6862 10.4631 32.6862 14.0041C32.6862 17.5449 35.3091 20.2758 39.135 20.2758ZM39.135 17.8689C37.1138 17.8689 36.0069 16.3183 36.0069 14.0041C36.0069 11.6898 37.1138 10.1161 39.135 10.1161C41.1322 10.1161 42.2633 11.6898 42.2633 14.0041C42.2633 16.3183 41.1322 17.8689 39.135 17.8689Z" fill="#B4B4C2"/>
<path d="M148.982 6.10711C148.982 5.57455 149.431 5.14282 149.985 5.14282H151.99C152.544 5.14282 152.993 5.57455 152.993 6.10711C152.993 6.63967 152.544 7.0714 151.99 7.0714H149.985C149.431 7.0714 148.982 6.63967 148.982 6.10711Z" fill="#B4B4C2"/>
<path fill-rule="evenodd" clip-rule="evenodd" d="M65.4305 0C73.1825 0 79.4674 6.04416 79.4674 13.5C79.4674 20.9558 73.1825 27 65.4305 27C57.6782 27 51.3938 20.9558 51.3938 13.5C51.3938 6.04416 57.6782 0 65.4305 0ZM64.9231 1.0102C63.3218 1.22694 61.797 2.46448 60.6133 4.53425C60.27 5.13461 59.9602 5.79789 59.6903 6.51405C61.2997 6.12506 63.0677 5.89573 64.9231 5.86026V1.0102ZM58.5039 6.83829C58.8396 5.82497 59.2503 4.89267 59.7242 4.06394C60.311 3.0379 61.0073 2.15187 61.7919 1.47134C57.5255 2.66303 54.1627 5.89733 52.9236 10.0006C53.6312 9.24601 54.5524 8.57628 55.6193 8.01198C56.481 7.55615 57.4503 7.16114 58.5039 6.83829ZM58.1668 7.97924C57.7623 9.52715 57.5239 11.2275 57.487 13.012H52.4441C52.6695 11.4719 53.9562 10.0054 56.1083 8.86707C56.7325 8.53686 57.4221 8.23892 58.1668 7.97924ZM58.5019 13.012C58.5438 11.0646 58.8354 9.2363 59.3177 7.62089C60.9973 7.15703 62.8983 6.87663 64.9231 6.83633V8.94429C64.1678 10.8042 62.6271 12.2858 60.6932 13.012H58.5019ZM57.487 13.988H52.4441C52.6695 15.5281 53.9562 16.9945 56.1083 18.1329C56.7325 18.4631 57.4221 18.7611 58.1668 19.0208C57.7623 17.4728 57.5239 15.7725 57.487 13.988ZM59.3177 19.3791C58.8354 17.7637 58.5438 15.9354 58.5019 13.988H60.6932C62.6271 14.7142 64.1678 16.1958 64.9231 18.0557V20.1637C62.8983 20.1234 60.9973 19.843 59.3177 19.3791ZM58.5039 20.1617C57.4503 19.8389 56.481 19.4438 55.6193 18.988C54.5524 18.4237 53.6312 17.754 52.9236 16.9994C54.1627 21.1027 57.5255 24.337 61.7919 25.5286C61.0073 24.8481 60.311 23.9621 59.7242 22.936C59.2503 22.1073 58.8396 21.175 58.5039 20.1617ZM64.9231 25.9898C63.3218 25.7731 61.797 24.5355 60.6133 22.4658C60.27 21.8654 59.9602 21.2021 59.6903 20.486C61.2997 20.8749 63.0677 21.1043 64.9231 21.1397V25.9898ZM69.069 25.5286C69.8536 24.8481 70.5499 23.9621 71.1366 22.936C71.6104 22.1073 72.0216 21.175 72.3571 20.1617C73.4106 19.8389 74.3798 19.4438 75.2417 18.988C76.3084 18.4237 77.23 17.754 77.9374 16.9994C76.698 21.1027 73.3355 24.337 69.069 25.5286ZM71.171 20.486C70.9008 21.2021 70.5906 21.8654 70.2474 22.4658C69.064 24.5355 67.5392 25.7731 65.9378 25.9898V21.1397C67.7932 21.1043 69.5612 20.8749 71.171 20.486ZM72.694 19.0208C73.4386 18.7611 74.1285 18.4631 74.7525 18.1329C76.905 16.9946 78.1915 15.5281 78.4168 13.988H73.3741C73.3369 15.7725 73.0983 17.4728 72.694 19.0208ZM72.3592 13.988C72.3171 15.9354 72.0258 17.7637 71.543 19.3791C69.8636 19.843 67.9626 20.1234 65.9378 20.1637V18.0573C66.693 16.1967 68.234 14.7144 70.1684 13.988H72.3592ZM73.3741 13.012H78.4168C78.1915 11.4719 76.905 10.0054 74.7525 8.86707C74.1285 8.53686 73.4386 8.23892 72.694 7.97924C73.0983 9.52715 73.3369 11.2275 73.3741 13.012ZM71.543 7.62089C72.0258 9.2363 72.3171 11.0646 72.3592 13.012H70.1684C68.234 12.2856 66.693 10.8033 65.9378 8.94274V6.83633C67.9626 6.87663 69.8636 7.15703 71.543 7.62089ZM72.3571 6.83829C73.4106 7.16114 74.3798 7.55615 75.2417 8.01198C76.3084 8.57628 77.23 9.24601 77.9374 10.0006C76.698 5.89733 73.3355 2.66303 69.069 1.47134C69.8536 2.15187 70.5499 3.0379 71.1366 4.06394C71.6104 4.89267 72.0216 5.82497 72.3571 6.83829ZM65.9378 1.0102C67.5392 1.22694 69.064 2.46448 70.2474 4.53425C70.5906 5.13462 70.9008 5.79789 71.171 6.51405C69.5612 6.12506 67.7932 5.89573 65.9378 5.86026V1.0102Z" fill="#B4B4C2"/>
</g>
<defs>
<clipPath id="clip0_1_185">
<rect width="153" height="27" fill="white"/>
</clipPath>
</defs>
</svg>
