<svg width="130" height="33" viewBox="0 0 130 33" fill="none" xmlns="http://www.w3.org/2000/svg">
<g clip-path="url(#clip0_1_208)">
<path d="M43.2624 8.48425H40.2581V21.819H48.575V19.2061H43.2624V8.48425Z" fill="#B4B4C2"/>
<path d="M48.8619 17.296C48.8619 20.1431 50.8038 22.0352 53.7348 22.0352C56.6476 22.0352 58.5895 20.1431 58.5895 17.296C58.5895 14.4488 56.6476 12.5387 53.7348 12.5387C50.8038 12.5387 48.8619 14.4488 48.8619 17.296ZM51.7014 17.2779C51.7014 15.9265 52.5075 15.0255 53.7348 15.0255C54.9439 15.0255 55.75 15.9265 55.75 17.2779C55.75 18.6475 54.9439 19.5485 53.7348 19.5485C52.5075 19.5485 51.7014 18.6475 51.7014 17.2779Z" fill="#B4B4C2"/>
<path d="M59.0434 17.1518C59.0434 19.8727 60.8387 21.7108 63.385 21.7108C64.6125 21.7108 65.675 21.2783 66.2062 20.5756V21.8189C66.2062 23.0623 65.4185 23.8911 64.0262 23.8911C62.7805 23.8911 61.9195 23.3146 61.8645 22.2874H59.0067C59.2632 24.7562 61.2051 26.4139 63.8613 26.4139C66.9939 26.4139 68.9724 24.4138 68.9724 21.2422V12.809H66.426L66.2795 13.728C65.7665 12.9892 64.6857 12.5027 63.44 12.5027C60.8753 12.5027 59.0434 14.3947 59.0434 17.1518ZM61.9012 17.0797C61.9012 15.7822 62.7805 14.9173 63.898 14.9173C65.1987 14.9173 66.1513 15.7642 66.1513 17.0797C66.1513 18.3952 65.2169 19.2961 63.9163 19.2961C62.7989 19.2961 61.9012 18.3952 61.9012 17.0797Z" fill="#B4B4C2"/>
<path d="M69.7946 17.296C69.7946 20.1431 71.7364 22.0352 74.6675 22.0352C77.5803 22.0352 79.5221 20.1431 79.5221 17.296C79.5221 14.4488 77.5803 12.5387 74.6675 12.5387C71.7364 12.5387 69.7946 14.4488 69.7946 17.296ZM72.6341 17.2779C72.6341 15.9265 73.4401 15.0255 74.6675 15.0255C75.8765 15.0255 76.6826 15.9265 76.6826 17.2779C76.6826 18.6475 75.8765 19.5485 74.6675 19.5485C73.4401 19.5485 72.6341 18.6475 72.6341 17.2779Z" fill="#B4B4C2"/>
<path d="M81.9544 11.4035C82.8337 11.4035 83.5482 10.7007 83.5482 9.81775C83.5482 8.93475 82.8337 8.25 81.9544 8.25C81.0567 8.25 80.3423 8.93475 80.3423 9.81775C80.3423 10.7007 81.0567 11.4035 81.9544 11.4035ZM80.5255 21.8189H83.365V12.809H80.5255V21.8189Z" fill="#B4B4C2"/>
<path d="M85.0183 26.1437H87.8028V20.918C88.3337 21.6028 89.5431 22.0713 90.8071 22.0713C93.5362 22.0713 95.1852 20.017 95.1122 17.1699C95.0384 14.2687 93.335 12.5208 90.7886 12.5208C89.4878 12.5208 88.2608 13.0794 87.7475 13.9083L87.6007 12.8091H85.0183V26.1437ZM87.8573 17.314C87.8573 15.9626 88.7732 15.0616 90.0925 15.0616C91.4294 15.0616 92.2723 15.9806 92.2723 17.314C92.2723 18.6475 91.4294 19.5665 90.0925 19.5665C88.7732 19.5665 87.8573 18.6655 87.8573 17.314Z" fill="#B4B4C2"/>
<path d="M95.4125 18.9718C95.4854 20.7919 96.9515 22.0532 99.2596 22.0532C101.476 22.0532 103.015 20.8999 103.015 19.0439C103.015 17.7105 102.209 16.8275 100.706 16.4671L99.0768 16.0706C98.4905 15.9265 98.124 15.7823 98.124 15.3138C98.124 14.8453 98.5081 14.5389 99.0768 14.5389C99.7176 14.5389 100.139 14.9534 100.121 15.5661H102.667C102.594 13.692 101.147 12.5208 99.1313 12.5208C97.0983 12.5208 95.5777 13.7101 95.5777 15.512C95.5777 16.7193 96.2554 17.7105 98.0687 18.179L99.6807 18.5934C100.157 18.7196 100.358 18.9358 100.358 19.2421C100.358 19.6926 99.9373 19.981 99.2227 19.981C98.3983 19.981 97.9588 19.6026 97.9588 18.9718H95.4125Z" fill="#B4B4C2"/>
<path d="M107.333 22.0532C108.451 22.0532 109.568 21.5486 110.136 20.8099L110.32 21.819H112.976V12.8091H110.154V17.4943C110.154 18.8457 109.752 19.5845 108.451 19.5845C107.443 19.5845 106.784 19.134 106.784 17.4582V12.8091H103.962V18.4673C103.962 20.6117 105.172 22.0532 107.333 22.0532Z" fill="#B4B4C2"/>
<path d="M117.45 21.8189V16.8995C117.45 15.3858 118.274 14.9533 119.08 14.9533C119.977 14.9533 120.564 15.494 120.564 16.6112V21.8189H123.348V16.8995C123.348 15.3678 124.154 14.9354 124.96 14.9354C125.858 14.9354 126.462 15.4759 126.462 16.6112V21.8189H129.211V15.9264C129.211 13.8722 128.111 12.5027 125.748 12.5027C124.429 12.5027 123.348 13.1333 122.872 14.1064C122.322 13.1333 121.37 12.5027 119.849 12.5027C118.842 12.5027 117.907 12.9531 117.358 13.6739L117.248 12.809H114.61V21.8189H117.45Z" fill="#B4B4C2"/>
<path d="M0 16.5C0 8.72182 0 4.83273 2.45652 2.41637C4.91304 0 8.86675 0 16.7742 0C24.6816 0 28.6353 0 31.0919 2.41637C33.5484 4.83273 33.5484 8.72182 33.5484 16.5C33.5484 24.2782 33.5484 28.1672 31.0919 30.5837C28.6353 33 24.6816 33 16.7742 33C8.86675 33 4.91304 33 2.45652 30.5837C0 28.1672 0 24.2782 0 16.5Z" fill="#B4B4C2"/>
<path d="M20.129 21.45C20.5922 21.45 20.9762 21.8229 20.8842 22.2695C20.7216 23.0582 20.3265 23.7892 19.7394 24.3667C18.9531 25.1403 17.8864 25.575 16.7742 25.575C15.662 25.575 14.5954 25.1403 13.8089 24.3667C13.2218 23.7892 12.8268 23.0582 12.6643 22.2695C12.5722 21.8229 12.9561 21.45 13.4193 21.45H20.129Z" fill="white"/>
<path d="M21.8922 14.6656C21.4448 14.7835 21.1708 15.2439 21.3977 15.6411C21.6364 16.0593 21.9667 16.4242 22.3685 16.7074C22.9994 17.1521 23.7675 17.3679 24.5421 17.3179C25.3165 17.268 26.0495 16.9555 26.6159 16.4336C27.1825 15.9117 27.5474 15.2126 27.6487 14.4557C27.75 13.6988 27.5815 12.9307 27.1716 12.2823C26.7617 11.634 26.1359 11.1456 25.401 10.9001C24.666 10.6547 23.8673 10.6676 23.1409 10.9365C22.6783 11.1078 22.2633 11.3761 21.9226 11.7192C21.5989 12.0451 21.7425 12.5597 22.1436 12.7875L22.5691 13.0291C23.2161 13.3967 23.0886 14.3503 22.3668 14.5405L21.8922 14.6656Z" fill="white"/>
<path d="M11.6562 14.6656C12.1036 14.7835 12.3776 15.2439 12.1508 15.6411C11.912 16.0593 11.5817 16.4242 11.18 16.7074C10.5491 17.1521 9.7809 17.3679 9.00644 17.3179C8.2319 17.268 7.49896 16.9555 6.93247 16.4336C6.36599 15.9117 6.00099 15.2126 5.89968 14.4557C5.79837 13.6988 5.96701 12.9307 6.37688 12.2823C6.78674 11.634 7.41247 11.1456 8.14744 10.9001C8.88239 10.6547 9.68118 10.6676 10.4076 10.9365C10.8701 11.1078 11.2852 11.3761 11.6259 11.7192C11.9496 12.0451 11.806 12.5597 11.4048 12.7875L10.9793 13.0291C10.3323 13.3967 10.4599 14.3503 11.1816 14.5405L11.6562 14.6656Z" fill="white"/>
</g>
<defs>
<clipPath id="clip0_1_208">
<rect width="130" height="33" fill="white"/>
</clipPath>
</defs>
</svg>
