<svg width="15" height="13" viewBox="0 0 15 13" fill="none" xmlns="http://www.w3.org/2000/svg">
<path d="M14.043 5.75391C14.4572 5.75391 14.793 6.08969 14.793 6.50391C14.793 6.91812 14.4572 7.25391 14.043 7.25391L14.043 5.75391ZM0.961857 7.03424C0.668963 6.74134 0.668963 6.26647 0.961857 5.97358L5.73483 1.2006C6.02772 0.907711 6.50259 0.907711 6.79549 1.2006C7.08838 1.4935 7.08838 1.96837 6.79549 2.26127L2.55285 6.50391L6.79549 10.7465C7.08838 11.0394 7.08838 11.5143 6.79549 11.8072C6.50259 12.1001 6.02772 12.1001 5.73483 11.8072L0.961857 7.03424ZM14.043 7.25391L1.49219 7.25391L1.49219 5.75391L14.043 5.75391L14.043 7.25391Z" fill="black"/>
</svg>
